<?xml version="1.0" encoding="UTF-8" standalone="no"?>
<svg
   xmlns:dc="http://purl.org/dc/elements/1.1/"
   xmlns:cc="http://creativecommons.org/ns#"
   xmlns:rdf="http://www.w3.org/1999/02/22-rdf-syntax-ns#"
   xmlns:svg="http://www.w3.org/2000/svg"
   xmlns="http://www.w3.org/2000/svg"
   viewBox="0 0 5382.6665 2466.6667"
   height="2466.6667"
   width="5382.6665"
   xml:space="preserve"
   id="svg2"
   version="1.1"><metadata
     id="metadata8"><rdf:RDF><cc:Work
         rdf:about=""><dc:format>image/svg+xml</dc:format><dc:type
           rdf:resource="http://purl.org/dc/dcmitype/StillImage" /></cc:Work></rdf:RDF></metadata><defs
     id="defs6" /><g
     transform="matrix(1.3333333,0,0,-1.3333333,0,2466.6667)"
     id="g10"><g
       transform="scale(0.1)"
       id="g12"><g
         transform="scale(1.1356)"
         id="g14"><path
           id="path16"
           style="fill:none;stroke:#ffffff;stroke-width:1320.89001465;stroke-linecap:round;stroke-linejoin:round;stroke-miterlimit:10;stroke-dasharray:none;stroke-opacity:1"
           d="m 12962.4,14374.6 3337.6,38.7" /></g><path
         id="path18"
         style="fill:none;stroke:#ffffff;stroke-width:1500;stroke-linecap:round;stroke-linejoin:round;stroke-miterlimit:10;stroke-dasharray:none;stroke-opacity:1"
         d="m 9585.9,11718.4 c 0,0 -2906.95,-290.4 -4781.45,-639 -1874.53,-348.6 -2578.16,-573 -2578.16,-573" /><path
         id="path20"
         style="fill:none;stroke:#ffffff;stroke-width:1500;stroke-linecap:round;stroke-linejoin:round;stroke-miterlimit:10;stroke-dasharray:none;stroke-opacity:1"
         d="m 14037.1,15177.7 88,-43.8 c -217.4,-116.4 195.5,-187.9 374.7,-198.4 179,-10.4 109.3,106 44,154.3 -65.3,48 -396.5,220.3 -396.5,220.3" /><g
         transform="scale(1.17344)"
         id="g22"><path
           id="path24"
           style="fill:none;stroke:#ffffff;stroke-width:1278.29003906;stroke-linecap:round;stroke-linejoin:round;stroke-miterlimit:10;stroke-dasharray:none;stroke-opacity:1"
           d="m 12112.6,13291.3 c 0,-255.5 -320,-544.5 -469.5,-544.5 -149.5,0 -300.4,223.1 -300.4,544.5 m 0,0 c 0,321.4 150.9,544.7 300.4,544.7 149.5,0 469.5,-289.2 469.5,-544.7 m -732.5,281.6 c -96.8,-2.3 -112.6,56.3 -112.6,56.3 178,196.4 511.9,742.7 676,957.7 164.1,215.2 591.7,512.8 694.8,544.7 103.2,31.9 157.2,-175.6 112.6,-375.6 -44.5,-200.1 -199.1,-817.3 -225.4,-882.5 -26.2,-65.3 -79,-161.3 -150.2,-169.1 -71,-7.7 -394.3,-56.3 -394.3,-56.3 M 826.859,10530.8 c 0,0 -77.992,288.7 -74.993,450.9 2.796,162.2 160.246,438.6 319.104,657 158.82,218.6 912.91,1133.8 1107.85,1314.6 195.14,180.9 638.58,469.4 638.58,469.4 l 93.85,112.9 c 0,0 918.74,310.8 1183.08,394.1 264.15,83.3 744.04,149.7 1258.09,187.7 514.05,38 1128.33,51.8 1746.26,56.5 618.32,4.6 2248.7,-24.4 2441.18,-37.5 192.65,-13.4 528.34,-74.8 713.54,-75.2 185.5,-0.5 1370.8,18.7 1370.8,18.7 m 957.9,18.8 3717.9,18.7 M 639.147,7883.28 c 0,1429.28 119.936,2294.42 187.712,2610.12 67.81,315.5 413.151,1183 413.151,1183 m 131.4,-619.7 c 0,0 53.15,278.4 150.19,544.5 97.4,266.1 287.95,543 788.78,1070.4 500.83,527.2 855,701 1539.88,901.3 684.68,200.4 1258.09,131.5 1258.09,131.5 -184.76,-134.2 -569.34,-233 -1014.02,-337.9 -444.67,-105.1 -832.29,-330.4 -995.34,-450.8 -162.91,-120.2 -485.88,-422.3 -751.09,-694.8 -265.21,-272.4 -915.41,-1074.6 -1070.37,-1276.9 -154.8,-202.3 -488.151,-694.9 -488.151,-694.9 M 1427.76,7883.28 c 0,704.09 13.01,2083.67 37.68,2478.72 24.47,394.8 150.2,995.3 150.2,995.3 M 11342.7,13404 c 0,0 -1669.18,-73.8 -2103.27,-94 -434.12,-19.9 -1779.19,-73.5 -2234.61,-93.9 -455.23,-20.3 -1059.26,-55.6 -1821.44,-112.7 C 4421.2,13046.5 3080.32,12897 3080.32,12897 m 6403.18,-75.2 c 3.53,200.2 -96.5,310.7 -206.39,356.8 -110.25,46.1 -131.55,131.4 -131.55,131.4 M 1315.21,10737.4 c 0,0 1313.75,676.3 1933.98,901.3 620.44,225.3 2656.56,819.8 3680.62,1051.7 1023.87,231.8 2647.73,507 2647.73,507 m -4807.31,338.2 c 485.35,73.6 1954.22,199.7 2535.02,225.2 580.98,25.4 2388.34,83.6 2704.05,93.9 315.8,10.2 1446,37.5 1446,37.5 m -1014,169 c 0,0 67.3,-165 75.1,-244.2 7.7,-79.1 319.2,-431.8 319.2,-431.8 l 225.3,-300.5 m 319.2,-56.3 -1577.32,300.4" /></g><g
         transform="scale(1.1356)"
         id="g26"><path
           id="path28"
           style="fill:none;stroke:#ffffff;stroke-width:1320.89001465;stroke-linecap:round;stroke-linejoin:round;stroke-miterlimit:10;stroke-dasharray:none;stroke-opacity:1"
           d="m 16300,1878.45 -3337.6,38.77" /></g><g
         transform="scale(2.43065)"
         id="g30"><path
           id="path32"
           style="fill:none;stroke:#ffffff;stroke-width:617.11901855;stroke-linecap:round;stroke-linejoin:round;stroke-miterlimit:10;stroke-dasharray:none;stroke-opacity:1"
           d="m 14786,3805.79 c 0,-432.05 -43.1,-943.87 -90.6,-1242.02 -47.5,-298.16 -109,-411.49 -335.4,-552.96 -226.3,-141.37 -305.8,-195.03 -534.9,-190.44 -229.1,4.76 -1604.9,65.71 -1921.9,72.61 -316.8,6.88 -1759.1,48.29 -2075.96,45.32 -316.77,-3.07 -1260.38,-21.44 -1586.42,-45.32 -326.05,-23.9 -1004.75,-83.49 -1251.05,-126.93 -246.29,-43.45 -1180.47,-220.54 -1305.45,-244.77 -124.96,-24.24 -754.02,-158.64 -897.44,-145.04 -143.43,13.59 -237.03,41.75 -407.93,154.05 -171.05,112.4 -276.22,267.47 -299.17,380.8 -22.95,113.33 -115.11,699.61 -136.02,924.65 -21.94,237.03 -45.32,747.65 -45.32,970.05 M 6980.67,1766.05 c 0,0 -78.55,687.62 -90.62,988.16 -12.07,300.54 -27.21,837 -27.21,1051.58 M 11903.2,1902 c 0,0 97.7,265.33 136,734.29 38.5,469.04 45.3,997.94 45.3,1169.5 m -18,-888.43 c 0,0 123.6,113.42 135.9,326.38 12.3,212.98 18.2,496.08 18.2,562.05 m 3807.4,0 c 0,-359.12 -68.5,-1047.59 -136,-1341.66 -67.4,-294.17 -220.4,-614.85 -335.4,-752.49 -115.1,-137.65 -357.8,-270.28 -534.8,-344.5 -177.1,-74.31 -386.2,-140.7 -453.3,-163.23 -67.1,-22.37 -164.5,-65.97 -272,-81.54 -107.5,-15.46 -689.1,-76.51 -1006.2,-99.64 -317.2,-23.285 -1296.4,-63.496 -1296.4,-63.496 M 16300,3805.79 c 0,-543.93 -37.7,-1325.24 -217.6,-1849.4 -179.9,-524.13 -363.1,-592.22 -453.3,-643.56 -90.1,-51.53 -436,-189.69 -752.4,-253.96 -316.3,-64.186 -698.2,-150.661 -879.3,-190.357 -181.2,-39.612 -436.3,-68.266 -688.9,-81.526 -252.8,-13.276 -1378,-5.193 -1505,0 -126.9,5.27 -491.5,48.712 -643.6,45.305 -152.2,-3.391 -1020,-17.678 -1223.82,-18.192 C 9732.28,813.763 8222.7,796.083 8222.7,796.083 M 4236.99,1634.43 c 0,0 -2.82,77.03 -18.12,181.35 -15.3,104.23 -27.2,652.6 -27.2,652.6 l 29.5,20.57 c 0,0 -11.73,1259.21 -11.39,1402.8 0.42,143.51 18.19,824.93 18.19,824.93 l -54.42,-9.09 c 0,0 -25.32,-1054.83 -27.2,-1214.75 -2.21,-187.8 -21.34,-755.03 -27.21,-997.18 -5.87,-242.21 -20.57,-383.25 -9,-407.9 11.47,-24.75 30.94,-63.69 27.11,-108.83 -3.73,-45.23 -18.11,-154.14 -18.11,-154.14 m 96.58,4111.3 c 0,0 3.07,-99.9 -9.01,-208.46 -12.15,-108.57 -100.65,-940.74 -99.72,-1160.33 0.93,-219.68 -47.78,-1704.86 -47.78,-1704.86 l -45.32,9.09 c 0,0 20.07,1583.97 38.68,1895.23 18.71,311.16 18.11,670.78 18.11,670.78 0,0 47.27,83.92 45.32,135.94 -1.96,52.12 -9.01,199.54 -9.01,199.54 M 3898.44,3805.79 c 0,222.32 23.38,733.04 45.32,969.97 20.91,225.05 113.07,811.33 136.02,924.66 22.95,113.34 128.12,268.4 299.17,380.79 170.9,112.32 264.5,140.46 407.93,154.05 143.42,13.61 772.48,-120.8 897.44,-145.04 124.98,-24.14 1059.16,-201.32 1305.45,-244.76 246.3,-43.45 925,-103.04 1251.05,-126.84 326.04,-23.9 1269.65,-42.35 1586.42,-45.32 316.86,-3.06 1759.16,38.34 2075.96,45.32 317,6.87 1692.8,67.75 1921.9,72.43 229.1,4.76 308.6,-48.89 534.9,-190.36 226.4,-141.47 287.9,-254.8 335.4,-552.95 47.5,-298.24 90.6,-809.89 90.6,-1241.95 m -2565.4,0 c 0,65.89 -5.9,349.01 -18.2,561.98 -12.3,212.97 -135.9,326.38 -135.9,326.38 m 2221,-2737.76 c 0,0 195.5,-124.8 253.8,-154.03 58.3,-29.35 177.9,-23.31 244.7,-18.12 67,5.02 813.9,34.09 852.2,45.23 38.4,11.21 126.9,36.3 126.9,36.3 m -1341.6,-716.19 c 0,0 99.1,-37.4 253.8,-9.1 154.6,28.4 679.1,168.5 861.2,344.49 182,176.08 290.9,438.01 377.9,1096.91 M 6001.71,1412.46 c 0,0 790.48,162.98 1069.68,199.44 279.12,36.56 953.13,128.89 1414.19,126.94 461.05,-1.95 1207.51,14.63 1450.5,9.1 243.02,-5.7 1225.72,-55.68 1541.12,-81.62 326.6,-26.86 1270.8,-103.47 1378,-117.83 107.1,-14.37 280.2,-11.91 181.2,-72.53 -98.9,-60.7 -347.6,-175.98 -516.7,-199.44 -169.1,-23.46 -617.9,-51.78 -843.1,-63.43 -225.1,-11.81 -1239.4,-55.01 -1595.5,-72.61 -356.21,-17.6 -1342.25,-45.99 -1577.41,-45.3 -235.25,0.75 -1202.92,8.4 -1550.22,9.09 -347.21,0.6 -1105.92,27.21 -1105.92,27.21 m 5566.15,543.85 670.8,-426.02 c 0,0 76.4,-132.37 127,-190.44 50.5,-57.9 110.3,-89.446 9.1,-145.036 -101.4,-55.443 -258.6,-109.942 -398.9,-126.847 m -117.9,217.553 c 0,0 165.8,1.62 217.6,0 51.7,-1.61 72.5,-45.306 72.5,-45.306 0,0 -73.3,-78.651 -272,-99.736 -198.6,-21.003 -484.6,8.677 -580.2,72.528 0,0 30.3,41.479 90.7,45.305 60.5,3.743 172.3,9.096 172.3,9.096 0,0 -8.5,-64.945 54.4,-72.593 62.8,-7.57 173,-4.42 208.4,9.178 35.6,13.515 36.3,81.528 36.3,81.528 z m -571.1,-72.514 c 0,0 -1060.7,-27.642 -1387.06,-36.302 -326.4,-8.6 -1269.16,-9.019 -1269.16,-9.019 m -290.08,54.417 c 0,0 143,-5.27 199.46,-9.096 56.45,-3.825 90.62,-45.321 90.62,-45.321 0,0 -85.1,-94.365 -308.27,-99.718 -223.1,-5.369 -464.45,24.558 -552.87,99.718 0,0 43.62,39.793 117.75,45.321 74.22,5.609 136.02,0 136.02,0 0,0 5.2,-62.74 54.42,-72.528 49.22,-9.865 194.6,-19.299 226.64,0 32.07,19.3 36.23,81.624 36.23,81.624 z m 906.63,806.818 c 0,0 -74.56,-312.35 -262.96,-643.67 0,0 -70.14,-102.78 -99.72,-145.036 -29.59,-42.265 -31.8,-75.083 -45.32,-99.736 -13.6,-24.651 -54.42,-63.415 -54.42,-63.415 m 707.1,951.857 c 0,0 -66.3,-376.12 -199.35,-634.57 m 2402.34,99.72 54.3,117.83 c 0,0 30.1,55.78 -36.3,90.64 -66.3,34.86 -453.2,262.87 -453.2,262.87 M 6862.84,3805.79 c 0,214.42 15.14,751.05 27.21,1051.59 12.07,300.54 90.62,988.08 90.62,988.08 M 12084.5,3805.79 c 0,171.49 -6.8,700.38 -45.3,1169.43 -38.3,468.96 -136,734.21 -136,734.21 m 90.7,942.85 c 0,0 979.2,-40.21 1296.4,-63.43 317.1,-23.21 898.7,-84.16 1006.2,-99.72 107.5,-15.56 204.9,-59.17 272,-81.52 67.1,-22.54 276.2,-88.94 453.3,-163.33 177,-74.22 419.7,-206.77 534.8,-344.42 115,-137.55 268,-458.32 335.4,-752.4 67.5,-294.16 136,-982.63 136,-1341.67 M 8222.7,6815.43 c 0,0 1509.58,-17.6 1713.38,-18.11 203.82,-0.43 1071.62,-14.62 1223.82,-18.11 152.1,-3.49 516.7,40.05 643.6,45.4 127,5.19 1252.2,13.18 1505,0 252.6,-13.34 507.7,-41.99 688.9,-81.63 181.1,-39.69 563,-126.15 879.3,-190.44 316.4,-64.18 662.3,-202.32 752.4,-253.77 90.2,-51.42 273.4,-119.53 453.3,-643.66 179.9,-524.06 217.6,-1305.53 217.6,-1849.32 M 5874.68,1131.48 l 226.66,308.19 m 145.04,27.19 -271.98,-335.38 m 2873.86,607.36 c 0,0 -214.91,-457.48 -426.1,-634.57 m 7342.94,4641.46 c 0,0 -88.5,25.09 -126.9,36.3 -38.3,11.14 -785.2,40.23 -852.2,45.32 -66.8,5.1 -186.4,11.22 -244.7,-18.19 -58.3,-29.25 -253.8,-154.05 -253.8,-154.05 m 1628.9,-625.56 c -87,658.97 -195.9,920.82 -377.9,1096.98 -182.1,176.07 -706.6,316.17 -861.2,344.49 -154.7,28.32 -253.8,-9.1 -253.8,-9.1 m -2756,226.67 c -35.4,13.51 -145.6,16.56 -208.4,9.09 -62.9,-7.65 -54.4,-72.61 -54.4,-72.61 0,0 -111.8,5.36 -172.3,9.1 -60.4,3.74 -90.7,45.4 -90.7,45.4 95.6,63.77 381.6,93.52 580.2,72.43 198.7,-21.08 272,-99.72 272,-99.72 0,0 -20.8,-43.7 -72.5,-45.32 -51.8,-1.52 -217.6,0 -217.6,0 0,0 -0.7,68.01 -36.3,81.63 z M 5847.55,6480.03 c 0,0 758.71,26.52 1105.92,27.21 347.3,0.68 1314.97,8.41 1550.22,9.1 235.16,0.75 1221.2,-27.72 1577.41,-45.32 356.1,-17.6 1370.4,-60.78 1595.5,-72.51 225.2,-11.83 674,-40.05 843.1,-63.52 169.1,-23.38 417.8,-138.75 516.7,-199.45 99,-60.7 -74.1,-58.06 -181.2,-72.43 -107.2,-14.37 -1051.4,-91.14 -1378,-117.93 -315.4,-25.84 -1298.1,-75.99 -1541.12,-81.52 -242.99,-5.61 -989.45,10.96 -1450.5,9.01 -461.06,-1.96 -1135.07,90.37 -1414.19,126.93 -279.2,36.46 -1069.68,199.45 -1069.68,199.45 m 5819.99,625.56 c 140.3,-17.08 297.5,-71.42 398.9,-126.93 101.2,-55.6 41.4,-87.06 -9.1,-145.14 -50.6,-57.96 -127,-190.33 -127,-190.33 l -670.8,-426.12 m -2937.22,788.7 c 0,0 942.76,-0.41 1269.16,-9 326.36,-8.67 1387.06,-36.22 1387.06,-36.22 M 8150.17,6752 c -32.04,19.38 -177.42,9.79 -226.64,0 -49.22,-9.77 -54.42,-72.43 -54.42,-72.43 0,0 -61.8,-5.61 -136.02,0 -74.13,5.53 -117.75,45.22 -117.75,45.22 88.42,75.17 329.77,105.09 552.87,99.82 223.17,-5.43 308.27,-99.82 308.27,-99.82 0,0 -34.17,-41.4 -90.62,-45.22 -56.46,-3.91 -199.46,-9.17 -199.46,-9.17 0,0 -4.16,62.3 -36.23,81.6 z m 480.44,63.43 c 0,0 40.82,-38.78 54.42,-63.43 13.52,-24.65 15.73,-57.47 45.32,-99.72 29.58,-42.17 99.72,-145.04 99.72,-145.04 188.4,-331.23 262.96,-643.58 262.96,-643.58 m 45.33,634.57 c 133.05,-258.55 199.35,-634.57 199.35,-634.57 m 1767.79,63.41 c 0,0 386.9,228.03 453.2,262.89 66.4,34.85 36.3,90.62 36.3,90.62 l -54.3,117.93 m -5439.36,-226.66 -226.66,308.18 m 99.72,0 271.98,-335.39 m 2175.78,362.6 c 211.19,-177 426.1,-634.57 426.1,-634.57" /></g><path
         id="path34"
         style="fill:none;stroke:#ffffff;stroke-width:1500;stroke-linecap:round;stroke-linejoin:round;stroke-miterlimit:10;stroke-dasharray:none;stroke-opacity:1"
         d="m 2226.29,7994.53 c 0,0 703.63,-224.41 2578.16,-573.01 1874.5,-348.43 4781.45,-638.98 4781.45,-638.98" /><path
         id="path36"
         style="fill:none;stroke:#ffffff;stroke-width:1500;stroke-linecap:round;stroke-linejoin:round;stroke-miterlimit:10;stroke-dasharray:none;stroke-opacity:1"
         d="m 14147.3,3191.02 c 0,0 331.2,172.1 396.5,220.27 65.3,47.93 135,164.49 -44,154.14 -179.2,-10.51 -592.1,-82.03 -374.7,-198.36 l -88,-44.02" /><g
         transform="scale(1.17344)"
         id="g38"><path
           id="path40"
           style="fill:none;stroke:#ffffff;stroke-width:1278.29003906;stroke-linecap:round;stroke-linejoin:round;stroke-miterlimit:10;stroke-dasharray:none;stroke-opacity:1"
           d="m 11342.7,2475.09 c 0,321.58 150.9,544.71 300.4,544.71 149.5,0 469.5,-289.18 469.5,-544.71 m 0,0 c 0,-255.52 -320,-544.5 -469.5,-544.5 -149.5,0 -300.4,223.1 -300.4,544.5 m 638.3,-356.62 c 0,0 323.3,-48.6 394.3,-56.52 71.2,-7.76 124,-103.73 150.2,-169.04 26.3,-65.18 180.9,-682.43 225.4,-882.29 44.6,-200.232 -9.4,-407.692 -112.6,-375.631 -103.1,31.684 -530.7,329.287 -694.8,544.501 -164.1,215.02 -498,761.32 -676,957.66 0,0 15.8,58.65 112.6,56.19 m 244.1,-507.02 c 0,0 -1185.3,19.37 -1370.8,19.04 -185.2,-0.53 -520.89,-62.02 -713.54,-75.2 -192.48,-13.22 -1822.86,-42.28 -2441.18,-37.72 -617.93,4.96 -1232.21,18.51 -1746.26,56.56 -514.05,37.84 -993.94,104.43 -1258.09,187.71 -264.34,83.3 -1183.08,394.31 -1183.08,394.31 l -93.85,112.71 c 0,0 -443.44,288.46 -638.58,469.48 -194.94,180.86 -949.03,1095.9 -1107.85,1314.44 -158.858,218.38 -316.308,494.88 -319.104,657.06 -2.999,162.39 74.993,450.83 74.993,450.83 M 16300,1649 12582.1,1667.64 M 1240.01,4090.17 c 0,0 -345.341,867.48 -413.151,1182.89 -67.776,315.58 -187.712,1180.79 -187.712,2610.22 M 789.379,5517.13 c 0,0 333.351,-492.37 488.151,-694.74 154.96,-202.32 805.16,-1004.48 1070.37,-1276.92 265.21,-272.44 588.18,-574.64 751.09,-694.74 163.05,-120.28 550.67,-345.51 995.34,-450.66 444.68,-105.13 829.26,-203.94 1014.02,-338.12 0,0 -573.41,-68.68 -1258.09,131.39 -684.88,200.4 -1039.05,374.03 -1539.88,901.46 -500.83,527.43 -691.38,804.46 -788.78,1070.37 -97.04,265.91 -150.19,544.5 -150.19,544.5 m 244.23,-300.43 c 0,0 -125.73,600.37 -150.2,995.38 -24.67,394.8 -37.68,1774.43 -37.68,2478.66 M 3080.32,2869.4 c 0,0 1340.88,-149.53 2103.06,-206.59 762.18,-56.86 1366.21,-92.08 1821.44,-112.51 455.42,-20.61 1800.49,-73.8 2234.61,-94.04 434.09,-19.91 2103.27,-93.88 2103.27,-93.88 m -2197.14,93.88 c 0,0 21.3,85.58 131.55,131.55 109.89,45.94 209.92,156.56 206.39,356.79 m 94.04,-375.63 c 0,0 -1623.86,275.23 -2647.73,506.99 -1024.06,231.92 -3060.18,826.47 -3680.62,1051.69 -620.23,225.07 -1933.98,901.33 -1933.98,901.33 M 11455.3,1874.23 c 0,0 -1130.2,27.46 -1446,37.69 -315.71,9.85 -2123.07,68.14 -2704.05,93.87 -580.8,25.33 -2049.67,151.6 -2535.02,225.23 m 6290.67,450.64 -225.3,-300.44 c 0,0 -311.5,-352.73 -319.2,-431.79 -7.8,-79.26 -75.1,-244.07 -75.1,-244.07 m -638.52,732.22 1577.32,300.43" /></g><g
         transform="scale(1.1356)"
         id="g42"><path
           id="path44"
           style="fill:none;stroke:#f0f0f0;stroke-width:1056.70996094;stroke-linecap:round;stroke-linejoin:round;stroke-miterlimit:10;stroke-dasharray:none;stroke-opacity:1"
           d="m 12962.4,14374.6 3337.6,38.7" /></g><path
         id="path46"
         style="fill:none;stroke:#f0f0f0;stroke-width:1200;stroke-linecap:round;stroke-linejoin:round;stroke-miterlimit:10;stroke-dasharray:none;stroke-opacity:1"
         d="m 9585.9,11718.4 c 0,0 -2906.95,-290.4 -4781.45,-639 -1874.53,-348.6 -2578.16,-573 -2578.16,-573" /><path
         id="path48"
         style="fill:none;stroke:#f0f0f0;stroke-width:1200;stroke-linecap:round;stroke-linejoin:round;stroke-miterlimit:10;stroke-dasharray:none;stroke-opacity:1"
         d="m 14037.1,15177.7 88,-43.8 c -217.4,-116.4 195.5,-187.9 374.7,-198.4 179,-10.4 109.3,106 44,154.3 -65.3,48 -396.5,220.3 -396.5,220.3" /><g
         transform="scale(1.17344)"
         id="g50"><path
           id="path52"
           style="fill:none;stroke:#f0f0f0;stroke-width:1022.63000488;stroke-linecap:round;stroke-linejoin:round;stroke-miterlimit:10;stroke-dasharray:none;stroke-opacity:1"
           d="m 12112.6,13291.3 c 0,-255.5 -320,-544.5 -469.5,-544.5 -149.5,0 -300.4,223.1 -300.4,544.5 m 0,0 c 0,321.4 150.9,544.7 300.4,544.7 149.5,0 469.5,-289.2 469.5,-544.7 m -732.5,281.6 c -96.8,-2.3 -112.6,56.3 -112.6,56.3 178,196.4 511.9,742.7 676,957.7 164.1,215.2 591.7,512.8 694.8,544.7 103.2,31.9 157.2,-175.6 112.6,-375.6 -44.5,-200.1 -199.1,-817.3 -225.4,-882.5 -26.2,-65.3 -79,-161.3 -150.2,-169.1 -71,-7.7 -394.3,-56.3 -394.3,-56.3 M 826.859,10530.8 c 0,0 -77.992,288.7 -74.993,450.9 2.796,162.2 160.246,438.6 319.104,657 158.82,218.6 912.91,1133.8 1107.85,1314.6 195.14,180.9 638.58,469.4 638.58,469.4 l 93.85,112.9 c 0,0 918.74,310.8 1183.08,394.1 264.15,83.3 744.04,149.7 1258.09,187.7 514.05,38 1128.33,51.8 1746.26,56.5 618.32,4.6 2248.7,-24.4 2441.18,-37.5 192.65,-13.4 528.34,-74.8 713.54,-75.2 185.5,-0.5 1370.8,18.7 1370.8,18.7 m 957.9,18.8 3717.9,18.7 M 639.147,7883.28 c 0,1429.28 119.936,2294.42 187.712,2610.12 67.81,315.5 413.151,1183 413.151,1183 m 131.4,-619.7 c 0,0 53.15,278.4 150.19,544.5 97.4,266.1 287.95,543 788.78,1070.4 500.83,527.2 855,701 1539.88,901.3 684.68,200.4 1258.09,131.5 1258.09,131.5 -184.76,-134.2 -569.34,-233 -1014.02,-337.9 -444.67,-105.1 -832.29,-330.4 -995.34,-450.8 -162.91,-120.2 -485.88,-422.3 -751.09,-694.8 -265.21,-272.4 -915.41,-1074.6 -1070.37,-1276.9 -154.8,-202.3 -488.151,-694.9 -488.151,-694.9 M 1427.76,7883.28 c 0,704.09 13.01,2083.67 37.68,2478.72 24.47,394.8 150.2,995.3 150.2,995.3 M 11342.7,13404 c 0,0 -1669.18,-73.8 -2103.27,-94 -434.12,-19.9 -1779.19,-73.5 -2234.61,-93.9 -455.23,-20.3 -1059.26,-55.6 -1821.44,-112.7 C 4421.2,13046.5 3080.32,12897 3080.32,12897 m 6403.18,-75.2 c 3.53,200.2 -96.5,310.7 -206.39,356.8 -110.25,46.1 -131.55,131.4 -131.55,131.4 M 1315.21,10737.4 c 0,0 1313.75,676.3 1933.98,901.3 620.44,225.3 2656.56,819.8 3680.62,1051.7 1023.87,231.8 2647.73,507 2647.73,507 m -4807.31,338.2 c 485.35,73.6 1954.22,199.7 2535.02,225.2 580.98,25.4 2388.34,83.6 2704.05,93.9 315.8,10.2 1446,37.5 1446,37.5 m -1014,169 c 0,0 67.3,-165 75.1,-244.2 7.7,-79.1 319.2,-431.8 319.2,-431.8 l 225.3,-300.5 m 319.2,-56.3 -1577.32,300.4" /></g><g
         transform="scale(1.1356)"
         id="g54"><path
           id="path56"
           style="fill:none;stroke:#f0f0f0;stroke-width:1056.70996094;stroke-linecap:round;stroke-linejoin:round;stroke-miterlimit:10;stroke-dasharray:none;stroke-opacity:1"
           d="m 16300,1878.45 -3337.6,38.77" /></g><g
         transform="scale(2.43065)"
         id="g58"><path
           id="path60"
           style="fill:none;stroke:#f0f0f0;stroke-width:493.69500732;stroke-linecap:round;stroke-linejoin:round;stroke-miterlimit:10;stroke-dasharray:none;stroke-opacity:1"
           d="m 14786,3805.79 c 0,-432.05 -43.1,-943.87 -90.6,-1242.02 -47.5,-298.16 -109,-411.49 -335.4,-552.96 -226.3,-141.37 -305.8,-195.03 -534.9,-190.44 -229.1,4.76 -1604.9,65.71 -1921.9,72.61 -316.8,6.88 -1759.1,48.29 -2075.96,45.32 -316.77,-3.07 -1260.38,-21.44 -1586.42,-45.32 -326.05,-23.9 -1004.75,-83.49 -1251.05,-126.93 -246.29,-43.45 -1180.47,-220.54 -1305.45,-244.77 -124.96,-24.24 -754.02,-158.64 -897.44,-145.04 -143.43,13.59 -237.03,41.75 -407.93,154.05 -171.05,112.4 -276.22,267.47 -299.17,380.8 -22.95,113.33 -115.11,699.61 -136.02,924.65 -21.94,237.03 -45.32,747.65 -45.32,970.05 M 6980.67,1766.05 c 0,0 -78.55,687.62 -90.62,988.16 -12.07,300.54 -27.21,837 -27.21,1051.58 M 11903.2,1902 c 0,0 97.7,265.33 136,734.29 38.5,469.04 45.3,997.94 45.3,1169.5 m -18,-888.43 c 0,0 123.6,113.42 135.9,326.38 12.3,212.98 18.2,496.08 18.2,562.05 m 3807.4,0 c 0,-359.12 -68.5,-1047.59 -136,-1341.66 -67.4,-294.17 -220.4,-614.85 -335.4,-752.49 -115.1,-137.65 -357.8,-270.28 -534.8,-344.5 -177.1,-74.31 -386.2,-140.7 -453.3,-163.23 -67.1,-22.37 -164.5,-65.97 -272,-81.54 -107.5,-15.46 -689.1,-76.51 -1006.2,-99.64 -317.2,-23.285 -1296.4,-63.496 -1296.4,-63.496 M 16300,3805.79 c 0,-543.93 -37.7,-1325.24 -217.6,-1849.4 -179.9,-524.13 -363.1,-592.22 -453.3,-643.56 -90.1,-51.53 -436,-189.69 -752.4,-253.96 -316.3,-64.186 -698.2,-150.661 -879.3,-190.357 -181.2,-39.612 -436.3,-68.266 -688.9,-81.526 -252.8,-13.276 -1378,-5.193 -1505,0 -126.9,5.27 -491.5,48.712 -643.6,45.305 -152.2,-3.391 -1020,-17.678 -1223.82,-18.192 C 9732.28,813.763 8222.7,796.083 8222.7,796.083 M 4236.99,1634.43 c 0,0 -2.82,77.03 -18.12,181.35 -15.3,104.23 -27.2,652.6 -27.2,652.6 l 29.5,20.57 c 0,0 -11.73,1259.21 -11.39,1402.8 0.42,143.51 18.19,824.93 18.19,824.93 l -54.42,-9.09 c 0,0 -25.32,-1054.83 -27.2,-1214.75 -2.21,-187.8 -21.34,-755.03 -27.21,-997.18 -5.87,-242.21 -20.57,-383.25 -9,-407.9 11.47,-24.75 30.94,-63.69 27.11,-108.83 -3.73,-45.23 -18.11,-154.14 -18.11,-154.14 m 96.58,4111.3 c 0,0 3.07,-99.9 -9.01,-208.46 -12.15,-108.57 -100.65,-940.74 -99.72,-1160.33 0.93,-219.68 -47.78,-1704.86 -47.78,-1704.86 l -45.32,9.09 c 0,0 20.07,1583.97 38.68,1895.23 18.71,311.16 18.11,670.78 18.11,670.78 0,0 47.27,83.92 45.32,135.94 -1.96,52.12 -9.01,199.54 -9.01,199.54 M 3898.44,3805.79 c 0,222.32 23.38,733.04 45.32,969.97 20.91,225.05 113.07,811.33 136.02,924.66 22.95,113.34 128.12,268.4 299.17,380.79 170.9,112.32 264.5,140.46 407.93,154.05 143.42,13.61 772.48,-120.8 897.44,-145.04 124.98,-24.14 1059.16,-201.32 1305.45,-244.76 246.3,-43.45 925,-103.04 1251.05,-126.84 326.04,-23.9 1269.65,-42.35 1586.42,-45.32 316.86,-3.06 1759.16,38.34 2075.96,45.32 317,6.87 1692.8,67.75 1921.9,72.43 229.1,4.76 308.6,-48.89 534.9,-190.36 226.4,-141.47 287.9,-254.8 335.4,-552.95 47.5,-298.24 90.6,-809.89 90.6,-1241.95 m -2565.4,0 c 0,65.89 -5.9,349.01 -18.2,561.98 -12.3,212.97 -135.9,326.38 -135.9,326.38 m 2221,-2737.76 c 0,0 195.5,-124.8 253.8,-154.03 58.3,-29.35 177.9,-23.31 244.7,-18.12 67,5.02 813.9,34.09 852.2,45.23 38.4,11.21 126.9,36.3 126.9,36.3 m -1341.6,-716.19 c 0,0 99.1,-37.4 253.8,-9.1 154.6,28.4 679.1,168.5 861.2,344.49 182,176.08 290.9,438.01 377.9,1096.91 M 6001.71,1412.46 c 0,0 790.48,162.98 1069.68,199.44 279.12,36.56 953.13,128.89 1414.19,126.94 461.05,-1.95 1207.51,14.63 1450.5,9.1 243.02,-5.7 1225.72,-55.68 1541.12,-81.62 326.6,-26.86 1270.8,-103.47 1378,-117.83 107.1,-14.37 280.2,-11.91 181.2,-72.53 -98.9,-60.7 -347.6,-175.98 -516.7,-199.44 -169.1,-23.46 -617.9,-51.78 -843.1,-63.43 -225.1,-11.81 -1239.4,-55.01 -1595.5,-72.61 -356.21,-17.6 -1342.25,-45.99 -1577.41,-45.3 -235.25,0.75 -1202.92,8.4 -1550.22,9.09 -347.21,0.6 -1105.92,27.21 -1105.92,27.21 m 5566.15,543.85 670.8,-426.02 c 0,0 76.4,-132.37 127,-190.44 50.5,-57.9 110.3,-89.446 9.1,-145.036 -101.4,-55.443 -258.6,-109.942 -398.9,-126.847 m -117.9,217.553 c 0,0 165.8,1.62 217.6,0 51.7,-1.61 72.5,-45.306 72.5,-45.306 0,0 -73.3,-78.651 -272,-99.736 -198.6,-21.003 -484.6,8.677 -580.2,72.528 0,0 30.3,41.479 90.7,45.305 60.5,3.743 172.3,9.096 172.3,9.096 0,0 -8.5,-64.945 54.4,-72.593 62.8,-7.57 173,-4.42 208.4,9.178 35.6,13.515 36.3,81.528 36.3,81.528 z m -571.1,-72.514 c 0,0 -1060.7,-27.642 -1387.06,-36.302 -326.4,-8.6 -1269.16,-9.019 -1269.16,-9.019 m -290.08,54.417 c 0,0 143,-5.27 199.46,-9.096 56.45,-3.825 90.62,-45.321 90.62,-45.321 0,0 -85.1,-94.365 -308.27,-99.718 -223.1,-5.369 -464.45,24.558 -552.87,99.718 0,0 43.62,39.793 117.75,45.321 74.22,5.609 136.02,0 136.02,0 0,0 5.2,-62.74 54.42,-72.528 49.22,-9.865 194.6,-19.299 226.64,0 32.07,19.3 36.23,81.624 36.23,81.624 z m 906.63,806.818 c 0,0 -74.56,-312.35 -262.96,-643.67 0,0 -70.14,-102.78 -99.72,-145.036 -29.59,-42.265 -31.8,-75.083 -45.32,-99.736 -13.6,-24.651 -54.42,-63.415 -54.42,-63.415 m 707.1,951.857 c 0,0 -66.3,-376.12 -199.35,-634.57 m 2402.34,99.72 54.3,117.83 c 0,0 30.1,55.78 -36.3,90.64 -66.3,34.86 -453.2,262.87 -453.2,262.87 M 6862.84,3805.79 c 0,214.42 15.14,751.05 27.21,1051.59 12.07,300.54 90.62,988.08 90.62,988.08 M 12084.5,3805.79 c 0,171.49 -6.8,700.38 -45.3,1169.43 -38.3,468.96 -136,734.21 -136,734.21 m 90.7,942.85 c 0,0 979.2,-40.21 1296.4,-63.43 317.1,-23.21 898.7,-84.16 1006.2,-99.72 107.5,-15.56 204.9,-59.17 272,-81.52 67.1,-22.54 276.2,-88.94 453.3,-163.33 177,-74.22 419.7,-206.77 534.8,-344.42 115,-137.55 268,-458.32 335.4,-752.4 67.5,-294.16 136,-982.63 136,-1341.67 M 8222.7,6815.43 c 0,0 1509.58,-17.6 1713.38,-18.11 203.82,-0.43 1071.62,-14.62 1223.82,-18.11 152.1,-3.49 516.7,40.05 643.6,45.4 127,5.19 1252.2,13.18 1505,0 252.6,-13.34 507.7,-41.99 688.9,-81.63 181.1,-39.69 563,-126.15 879.3,-190.44 316.4,-64.18 662.3,-202.32 752.4,-253.77 90.2,-51.42 273.4,-119.53 453.3,-643.66 179.9,-524.06 217.6,-1305.53 217.6,-1849.32 M 5874.68,1131.48 l 226.66,308.19 m 145.04,27.19 -271.98,-335.38 m 2873.86,607.36 c 0,0 -214.91,-457.48 -426.1,-634.57 m 7342.94,4641.46 c 0,0 -88.5,25.09 -126.9,36.3 -38.3,11.14 -785.2,40.23 -852.2,45.32 -66.8,5.1 -186.4,11.22 -244.7,-18.19 -58.3,-29.25 -253.8,-154.05 -253.8,-154.05 m 1628.9,-625.56 c -87,658.97 -195.9,920.82 -377.9,1096.98 -182.1,176.07 -706.6,316.17 -861.2,344.49 -154.7,28.32 -253.8,-9.1 -253.8,-9.1 m -2756,226.67 c -35.4,13.51 -145.6,16.56 -208.4,9.09 -62.9,-7.65 -54.4,-72.61 -54.4,-72.61 0,0 -111.8,5.36 -172.3,9.1 -60.4,3.74 -90.7,45.4 -90.7,45.4 95.6,63.77 381.6,93.52 580.2,72.43 198.7,-21.08 272,-99.72 272,-99.72 0,0 -20.8,-43.7 -72.5,-45.32 -51.8,-1.52 -217.6,0 -217.6,0 0,0 -0.7,68.01 -36.3,81.63 z M 5847.55,6480.03 c 0,0 758.71,26.52 1105.92,27.21 347.3,0.68 1314.97,8.41 1550.22,9.1 235.16,0.75 1221.2,-27.72 1577.41,-45.32 356.1,-17.6 1370.4,-60.78 1595.5,-72.51 225.2,-11.83 674,-40.05 843.1,-63.52 169.1,-23.38 417.8,-138.75 516.7,-199.45 99,-60.7 -74.1,-58.06 -181.2,-72.43 -107.2,-14.37 -1051.4,-91.14 -1378,-117.93 -315.4,-25.84 -1298.1,-75.99 -1541.12,-81.52 -242.99,-5.61 -989.45,10.96 -1450.5,9.01 -461.06,-1.96 -1135.07,90.37 -1414.19,126.93 -279.2,36.46 -1069.68,199.45 -1069.68,199.45 m 5819.99,625.56 c 140.3,-17.08 297.5,-71.42 398.9,-126.93 101.2,-55.6 41.4,-87.06 -9.1,-145.14 -50.6,-57.96 -127,-190.33 -127,-190.33 l -670.8,-426.12 m -2937.22,788.7 c 0,0 942.76,-0.41 1269.16,-9 326.36,-8.67 1387.06,-36.22 1387.06,-36.22 M 8150.17,6752 c -32.04,19.38 -177.42,9.79 -226.64,0 -49.22,-9.77 -54.42,-72.43 -54.42,-72.43 0,0 -61.8,-5.61 -136.02,0 -74.13,5.53 -117.75,45.22 -117.75,45.22 88.42,75.17 329.77,105.09 552.87,99.82 223.17,-5.43 308.27,-99.82 308.27,-99.82 0,0 -34.17,-41.4 -90.62,-45.22 -56.46,-3.91 -199.46,-9.17 -199.46,-9.17 0,0 -4.16,62.3 -36.23,81.6 z m 480.44,63.43 c 0,0 40.82,-38.78 54.42,-63.43 13.52,-24.65 15.73,-57.47 45.32,-99.72 29.58,-42.17 99.72,-145.04 99.72,-145.04 188.4,-331.23 262.96,-643.58 262.96,-643.58 m 45.33,634.57 c 133.05,-258.55 199.35,-634.57 199.35,-634.57 m 1767.79,63.41 c 0,0 386.9,228.03 453.2,262.89 66.4,34.85 36.3,90.62 36.3,90.62 l -54.3,117.93 m -5439.36,-226.66 -226.66,308.18 m 99.72,0 271.98,-335.39 m 2175.78,362.6 c 211.19,-177 426.1,-634.57 426.1,-634.57" /></g><path
         id="path62"
         style="fill:none;stroke:#f0f0f0;stroke-width:1200;stroke-linecap:round;stroke-linejoin:round;stroke-miterlimit:10;stroke-dasharray:none;stroke-opacity:1"
         d="m 2226.29,7994.53 c 0,0 703.63,-224.41 2578.16,-573.01 1874.5,-348.43 4781.45,-638.98 4781.45,-638.98" /><path
         id="path64"
         style="fill:none;stroke:#f0f0f0;stroke-width:1200;stroke-linecap:round;stroke-linejoin:round;stroke-miterlimit:10;stroke-dasharray:none;stroke-opacity:1"
         d="m 14147.3,3191.02 c 0,0 331.2,172.1 396.5,220.27 65.3,47.93 135,164.49 -44,154.14 -179.2,-10.51 -592.1,-82.03 -374.7,-198.36 l -88,-44.02" /><g
         transform="scale(1.17344)"
         id="g66"><path
           id="path68"
           style="fill:none;stroke:#f0f0f0;stroke-width:1022.63000488;stroke-linecap:round;stroke-linejoin:round;stroke-miterlimit:10;stroke-dasharray:none;stroke-opacity:1"
           d="m 11342.7,2475.09 c 0,321.58 150.9,544.71 300.4,544.71 149.5,0 469.5,-289.18 469.5,-544.71 m 0,0 c 0,-255.52 -320,-544.5 -469.5,-544.5 -149.5,0 -300.4,223.1 -300.4,544.5 m 638.3,-356.62 c 0,0 323.3,-48.6 394.3,-56.52 71.2,-7.76 124,-103.73 150.2,-169.04 26.3,-65.18 180.9,-682.43 225.4,-882.29 44.6,-200.232 -9.4,-407.692 -112.6,-375.631 -103.1,31.684 -530.7,329.287 -694.8,544.501 -164.1,215.02 -498,761.32 -676,957.66 0,0 15.8,58.65 112.6,56.19 m 244.1,-507.02 c 0,0 -1185.3,19.37 -1370.8,19.04 -185.2,-0.53 -520.89,-62.02 -713.54,-75.2 -192.48,-13.22 -1822.86,-42.28 -2441.18,-37.72 -617.93,4.96 -1232.21,18.51 -1746.26,56.56 -514.05,37.84 -993.94,104.43 -1258.09,187.71 -264.34,83.3 -1183.08,394.31 -1183.08,394.31 l -93.85,112.71 c 0,0 -443.44,288.46 -638.58,469.48 -194.94,180.86 -949.03,1095.9 -1107.85,1314.44 -158.858,218.38 -316.308,494.88 -319.104,657.06 -2.999,162.39 74.993,450.83 74.993,450.83 M 16300,1649 12582.1,1667.64 M 1240.01,4090.17 c 0,0 -345.341,867.48 -413.151,1182.89 -67.776,315.58 -187.712,1180.79 -187.712,2610.22 M 789.379,5517.13 c 0,0 333.351,-492.37 488.151,-694.74 154.96,-202.32 805.16,-1004.48 1070.37,-1276.92 265.21,-272.44 588.18,-574.64 751.09,-694.74 163.05,-120.28 550.67,-345.51 995.34,-450.66 444.68,-105.13 829.26,-203.94 1014.02,-338.12 0,0 -573.41,-68.68 -1258.09,131.39 -684.88,200.4 -1039.05,374.03 -1539.88,901.46 -500.83,527.43 -691.38,804.46 -788.78,1070.37 -97.04,265.91 -150.19,544.5 -150.19,544.5 m 244.23,-300.43 c 0,0 -125.73,600.37 -150.2,995.38 -24.67,394.8 -37.68,1774.43 -37.68,2478.66 M 3080.32,2869.4 c 0,0 1340.88,-149.53 2103.06,-206.59 762.18,-56.86 1366.21,-92.08 1821.44,-112.51 455.42,-20.61 1800.49,-73.8 2234.61,-94.04 434.09,-19.91 2103.27,-93.88 2103.27,-93.88 m -2197.14,93.88 c 0,0 21.3,85.58 131.55,131.55 109.89,45.94 209.92,156.56 206.39,356.79 m 94.04,-375.63 c 0,0 -1623.86,275.23 -2647.73,506.99 -1024.06,231.92 -3060.18,826.47 -3680.62,1051.69 -620.23,225.07 -1933.98,901.33 -1933.98,901.33 M 11455.3,1874.23 c 0,0 -1130.2,27.46 -1446,37.69 -315.71,9.85 -2123.07,68.14 -2704.05,93.87 -580.8,25.33 -2049.67,151.6 -2535.02,225.23 m 6290.67,450.64 -225.3,-300.44 c 0,0 -311.5,-352.73 -319.2,-431.79 -7.8,-79.26 -75.1,-244.07 -75.1,-244.07 m -638.52,732.22 1577.32,300.43" /></g><g
         transform="scale(1.1356)"
         id="g70"><path
           id="path72"
           style="fill:none;stroke:#dfdfdf;stroke-width:528.35601807;stroke-linecap:round;stroke-linejoin:round;stroke-miterlimit:10;stroke-dasharray:none;stroke-opacity:1"
           d="m 12962.4,14374.6 3337.6,38.7" /></g><path
         id="path74"
         style="fill:none;stroke:#dfdfdf;stroke-width:600;stroke-linecap:round;stroke-linejoin:round;stroke-miterlimit:10;stroke-dasharray:none;stroke-opacity:1"
         d="m 9585.9,11718.4 c 0,0 -2906.95,-290.4 -4781.45,-639 -1874.53,-348.6 -2578.16,-573 -2578.16,-573" /><path
         id="path76"
         style="fill:none;stroke:#dfdfdf;stroke-width:600;stroke-linecap:round;stroke-linejoin:round;stroke-miterlimit:10;stroke-dasharray:none;stroke-opacity:1"
         d="m 14037.1,15177.7 88,-43.8 c -217.4,-116.4 195.5,-187.9 374.7,-198.4 179,-10.4 109.3,106 44,154.3 -65.3,48 -396.5,220.3 -396.5,220.3" /><g
         transform="scale(1.17344)"
         id="g78"><path
           id="path80"
           style="fill:none;stroke:#dfdfdf;stroke-width:511.31698608;stroke-linecap:round;stroke-linejoin:round;stroke-miterlimit:10;stroke-dasharray:none;stroke-opacity:1"
           d="m 12112.6,13291.3 c 0,-255.5 -320,-544.5 -469.5,-544.5 -149.5,0 -300.4,223.1 -300.4,544.5 m 0,0 c 0,321.4 150.9,544.7 300.4,544.7 149.5,0 469.5,-289.2 469.5,-544.7 m -732.5,281.6 c -96.8,-2.3 -112.6,56.3 -112.6,56.3 178,196.4 511.9,742.7 676,957.7 164.1,215.2 591.7,512.8 694.8,544.7 103.2,31.9 157.2,-175.6 112.6,-375.6 -44.5,-200.1 -199.1,-817.3 -225.4,-882.5 -26.2,-65.3 -79,-161.3 -150.2,-169.1 -71,-7.7 -394.3,-56.3 -394.3,-56.3 M 826.859,10530.8 c 0,0 -77.992,288.7 -74.993,450.9 2.796,162.2 160.246,438.6 319.104,657 158.82,218.6 912.91,1133.8 1107.85,1314.6 195.14,180.9 638.58,469.4 638.58,469.4 l 93.85,112.9 c 0,0 918.74,310.8 1183.08,394.1 264.15,83.3 744.04,149.7 1258.09,187.7 514.05,38 1128.33,51.8 1746.26,56.5 618.32,4.6 2248.7,-24.4 2441.18,-37.5 192.65,-13.4 528.34,-74.8 713.54,-75.2 185.5,-0.5 1370.8,18.7 1370.8,18.7 m 957.9,18.8 3717.9,18.7 M 639.147,7883.28 c 0,1429.28 119.936,2294.42 187.712,2610.12 67.81,315.5 413.151,1183 413.151,1183 m 131.4,-619.7 c 0,0 53.15,278.4 150.19,544.5 97.4,266.1 287.95,543 788.78,1070.4 500.83,527.2 855,701 1539.88,901.3 684.68,200.4 1258.09,131.5 1258.09,131.5 -184.76,-134.2 -569.34,-233 -1014.02,-337.9 -444.67,-105.1 -832.29,-330.4 -995.34,-450.8 -162.91,-120.2 -485.88,-422.3 -751.09,-694.8 -265.21,-272.4 -915.41,-1074.6 -1070.37,-1276.9 -154.8,-202.3 -488.151,-694.9 -488.151,-694.9 M 1427.76,7883.28 c 0,704.09 13.01,2083.67 37.68,2478.72 24.47,394.8 150.2,995.3 150.2,995.3 M 11342.7,13404 c 0,0 -1669.18,-73.8 -2103.27,-94 -434.12,-19.9 -1779.19,-73.5 -2234.61,-93.9 -455.23,-20.3 -1059.26,-55.6 -1821.44,-112.7 C 4421.2,13046.5 3080.32,12897 3080.32,12897 m 6403.18,-75.2 c 3.53,200.2 -96.5,310.7 -206.39,356.8 -110.25,46.1 -131.55,131.4 -131.55,131.4 M 1315.21,10737.4 c 0,0 1313.75,676.3 1933.98,901.3 620.44,225.3 2656.56,819.8 3680.62,1051.7 1023.87,231.8 2647.73,507 2647.73,507 m -4807.31,338.2 c 485.35,73.6 1954.22,199.7 2535.02,225.2 580.98,25.4 2388.34,83.6 2704.05,93.9 315.8,10.2 1446,37.5 1446,37.5 m -1014,169 c 0,0 67.3,-165 75.1,-244.2 7.7,-79.1 319.2,-431.8 319.2,-431.8 l 225.3,-300.5 m 319.2,-56.3 -1577.32,300.4" /></g><g
         transform="scale(1.1356)"
         id="g82"><path
           id="path84"
           style="fill:none;stroke:#dfdfdf;stroke-width:528.35601807;stroke-linecap:round;stroke-linejoin:round;stroke-miterlimit:10;stroke-dasharray:none;stroke-opacity:1"
           d="m 16300,1878.45 -3337.6,38.77" /></g><g
         transform="scale(2.43065)"
         id="g86"><path
           id="path88"
           style="fill:none;stroke:#dfdfdf;stroke-width:246.84700012;stroke-linecap:round;stroke-linejoin:round;stroke-miterlimit:10;stroke-dasharray:none;stroke-opacity:1"
           d="m 14786,3805.79 c 0,-432.05 -43.1,-943.87 -90.6,-1242.02 -47.5,-298.16 -109,-411.49 -335.4,-552.96 -226.3,-141.37 -305.8,-195.03 -534.9,-190.44 -229.1,4.76 -1604.9,65.71 -1921.9,72.61 -316.8,6.88 -1759.1,48.29 -2075.96,45.32 -316.77,-3.07 -1260.38,-21.44 -1586.42,-45.32 -326.05,-23.9 -1004.75,-83.49 -1251.05,-126.93 -246.29,-43.45 -1180.47,-220.54 -1305.45,-244.77 -124.96,-24.24 -754.02,-158.64 -897.44,-145.04 -143.43,13.59 -237.03,41.75 -407.93,154.05 -171.05,112.4 -276.22,267.47 -299.17,380.8 -22.95,113.33 -115.11,699.61 -136.02,924.65 -21.94,237.03 -45.32,747.65 -45.32,970.05 M 6980.67,1766.05 c 0,0 -78.55,687.62 -90.62,988.16 -12.07,300.54 -27.21,837 -27.21,1051.58 M 11903.2,1902 c 0,0 97.7,265.33 136,734.29 38.5,469.04 45.3,997.94 45.3,1169.5 m -18,-888.43 c 0,0 123.6,113.42 135.9,326.38 12.3,212.98 18.2,496.08 18.2,562.05 m 3807.4,0 c 0,-359.12 -68.5,-1047.59 -136,-1341.66 -67.4,-294.17 -220.4,-614.85 -335.4,-752.49 -115.1,-137.65 -357.8,-270.28 -534.8,-344.5 -177.1,-74.31 -386.2,-140.7 -453.3,-163.23 -67.1,-22.37 -164.5,-65.97 -272,-81.54 -107.5,-15.46 -689.1,-76.51 -1006.2,-99.64 -317.2,-23.285 -1296.4,-63.496 -1296.4,-63.496 M 16300,3805.79 c 0,-543.93 -37.7,-1325.24 -217.6,-1849.4 -179.9,-524.13 -363.1,-592.22 -453.3,-643.56 -90.1,-51.53 -436,-189.69 -752.4,-253.96 -316.3,-64.186 -698.2,-150.661 -879.3,-190.357 -181.2,-39.612 -436.3,-68.266 -688.9,-81.526 -252.8,-13.276 -1378,-5.193 -1505,0 -126.9,5.27 -491.5,48.712 -643.6,45.305 -152.2,-3.391 -1020,-17.678 -1223.82,-18.192 C 9732.28,813.763 8222.7,796.083 8222.7,796.083 M 4236.99,1634.43 c 0,0 -2.82,77.03 -18.12,181.35 -15.3,104.23 -27.2,652.6 -27.2,652.6 l 29.5,20.57 c 0,0 -11.73,1259.21 -11.39,1402.8 0.42,143.51 18.19,824.93 18.19,824.93 l -54.42,-9.09 c 0,0 -25.32,-1054.83 -27.2,-1214.75 -2.21,-187.8 -21.34,-755.03 -27.21,-997.18 -5.87,-242.21 -20.57,-383.25 -9,-407.9 11.47,-24.75 30.94,-63.69 27.11,-108.83 -3.73,-45.23 -18.11,-154.14 -18.11,-154.14 m 96.58,4111.3 c 0,0 3.07,-99.9 -9.01,-208.46 -12.15,-108.57 -100.65,-940.74 -99.72,-1160.33 0.93,-219.68 -47.78,-1704.86 -47.78,-1704.86 l -45.32,9.09 c 0,0 20.07,1583.97 38.68,1895.23 18.71,311.16 18.11,670.78 18.11,670.78 0,0 47.27,83.92 45.32,135.94 -1.96,52.12 -9.01,199.54 -9.01,199.54 M 3898.44,3805.79 c 0,222.32 23.38,733.04 45.32,969.97 20.91,225.05 113.07,811.33 136.02,924.66 22.95,113.34 128.12,268.4 299.17,380.79 170.9,112.32 264.5,140.46 407.93,154.05 143.42,13.61 772.48,-120.8 897.44,-145.04 124.98,-24.14 1059.16,-201.32 1305.45,-244.76 246.3,-43.45 925,-103.04 1251.05,-126.84 326.04,-23.9 1269.65,-42.35 1586.42,-45.32 316.86,-3.06 1759.16,38.34 2075.96,45.32 317,6.87 1692.8,67.75 1921.9,72.43 229.1,4.76 308.6,-48.89 534.9,-190.36 226.4,-141.47 287.9,-254.8 335.4,-552.95 47.5,-298.24 90.6,-809.89 90.6,-1241.95 m -2565.4,0 c 0,65.89 -5.9,349.01 -18.2,561.98 -12.3,212.97 -135.9,326.38 -135.9,326.38 m 2221,-2737.76 c 0,0 195.5,-124.8 253.8,-154.03 58.3,-29.35 177.9,-23.31 244.7,-18.12 67,5.02 813.9,34.09 852.2,45.23 38.4,11.21 126.9,36.3 126.9,36.3 m -1341.6,-716.19 c 0,0 99.1,-37.4 253.8,-9.1 154.6,28.4 679.1,168.5 861.2,344.49 182,176.08 290.9,438.01 377.9,1096.91 M 6001.71,1412.46 c 0,0 790.48,162.98 1069.68,199.44 279.12,36.56 953.13,128.89 1414.19,126.94 461.05,-1.95 1207.51,14.63 1450.5,9.1 243.02,-5.7 1225.72,-55.68 1541.12,-81.62 326.6,-26.86 1270.8,-103.47 1378,-117.83 107.1,-14.37 280.2,-11.91 181.2,-72.53 -98.9,-60.7 -347.6,-175.98 -516.7,-199.44 -169.1,-23.46 -617.9,-51.78 -843.1,-63.43 -225.1,-11.81 -1239.4,-55.01 -1595.5,-72.61 -356.21,-17.6 -1342.25,-45.99 -1577.41,-45.3 -235.25,0.75 -1202.92,8.4 -1550.22,9.09 -347.21,0.6 -1105.92,27.21 -1105.92,27.21 m 5566.15,543.85 670.8,-426.02 c 0,0 76.4,-132.37 127,-190.44 50.5,-57.9 110.3,-89.446 9.1,-145.036 -101.4,-55.443 -258.6,-109.942 -398.9,-126.847 m -117.9,217.553 c 0,0 165.8,1.62 217.6,0 51.7,-1.61 72.5,-45.306 72.5,-45.306 0,0 -73.3,-78.651 -272,-99.736 -198.6,-21.003 -484.6,8.677 -580.2,72.528 0,0 30.3,41.479 90.7,45.305 60.5,3.743 172.3,9.096 172.3,9.096 0,0 -8.5,-64.945 54.4,-72.593 62.8,-7.57 173,-4.42 208.4,9.178 35.6,13.515 36.3,81.528 36.3,81.528 z m -571.1,-72.514 c 0,0 -1060.7,-27.642 -1387.06,-36.302 -326.4,-8.6 -1269.16,-9.019 -1269.16,-9.019 m -290.08,54.417 c 0,0 143,-5.27 199.46,-9.096 56.45,-3.825 90.62,-45.321 90.62,-45.321 0,0 -85.1,-94.365 -308.27,-99.718 -223.1,-5.369 -464.45,24.558 -552.87,99.718 0,0 43.62,39.793 117.75,45.321 74.22,5.609 136.02,0 136.02,0 0,0 5.2,-62.74 54.42,-72.528 49.22,-9.865 194.6,-19.299 226.64,0 32.07,19.3 36.23,81.624 36.23,81.624 z m 906.63,806.818 c 0,0 -74.56,-312.35 -262.96,-643.67 0,0 -70.14,-102.78 -99.72,-145.036 -29.59,-42.265 -31.8,-75.083 -45.32,-99.736 -13.6,-24.651 -54.42,-63.415 -54.42,-63.415 m 707.1,951.857 c 0,0 -66.3,-376.12 -199.35,-634.57 m 2402.34,99.72 54.3,117.83 c 0,0 30.1,55.78 -36.3,90.64 -66.3,34.86 -453.2,262.87 -453.2,262.87 M 6862.84,3805.79 c 0,214.42 15.14,751.05 27.21,1051.59 12.07,300.54 90.62,988.08 90.62,988.08 M 12084.5,3805.79 c 0,171.49 -6.8,700.38 -45.3,1169.43 -38.3,468.96 -136,734.21 -136,734.21 m 90.7,942.85 c 0,0 979.2,-40.21 1296.4,-63.43 317.1,-23.21 898.7,-84.16 1006.2,-99.72 107.5,-15.56 204.9,-59.17 272,-81.52 67.1,-22.54 276.2,-88.94 453.3,-163.33 177,-74.22 419.7,-206.77 534.8,-344.42 115,-137.55 268,-458.32 335.4,-752.4 67.5,-294.16 136,-982.63 136,-1341.67 M 8222.7,6815.43 c 0,0 1509.58,-17.6 1713.38,-18.11 203.82,-0.43 1071.62,-14.62 1223.82,-18.11 152.1,-3.49 516.7,40.05 643.6,45.4 127,5.19 1252.2,13.18 1505,0 252.6,-13.34 507.7,-41.99 688.9,-81.63 181.1,-39.69 563,-126.15 879.3,-190.44 316.4,-64.18 662.3,-202.32 752.4,-253.77 90.2,-51.42 273.4,-119.53 453.3,-643.66 179.9,-524.06 217.6,-1305.53 217.6,-1849.32 M 5874.68,1131.48 l 226.66,308.19 m 145.04,27.19 -271.98,-335.38 m 2873.86,607.36 c 0,0 -214.91,-457.48 -426.1,-634.57 m 7342.94,4641.46 c 0,0 -88.5,25.09 -126.9,36.3 -38.3,11.14 -785.2,40.23 -852.2,45.32 -66.8,5.1 -186.4,11.22 -244.7,-18.19 -58.3,-29.25 -253.8,-154.05 -253.8,-154.05 m 1628.9,-625.56 c -87,658.97 -195.9,920.82 -377.9,1096.98 -182.1,176.07 -706.6,316.17 -861.2,344.49 -154.7,28.32 -253.8,-9.1 -253.8,-9.1 m -2756,226.67 c -35.4,13.51 -145.6,16.56 -208.4,9.09 -62.9,-7.65 -54.4,-72.61 -54.4,-72.61 0,0 -111.8,5.36 -172.3,9.1 -60.4,3.74 -90.7,45.4 -90.7,45.4 95.6,63.77 381.6,93.52 580.2,72.43 198.7,-21.08 272,-99.72 272,-99.72 0,0 -20.8,-43.7 -72.5,-45.32 -51.8,-1.52 -217.6,0 -217.6,0 0,0 -0.7,68.01 -36.3,81.63 z M 5847.55,6480.03 c 0,0 758.71,26.52 1105.92,27.21 347.3,0.68 1314.97,8.41 1550.22,9.1 235.16,0.75 1221.2,-27.72 1577.41,-45.32 356.1,-17.6 1370.4,-60.78 1595.5,-72.51 225.2,-11.83 674,-40.05 843.1,-63.52 169.1,-23.38 417.8,-138.75 516.7,-199.45 99,-60.7 -74.1,-58.06 -181.2,-72.43 -107.2,-14.37 -1051.4,-91.14 -1378,-117.93 -315.4,-25.84 -1298.1,-75.99 -1541.12,-81.52 -242.99,-5.61 -989.45,10.96 -1450.5,9.01 -461.06,-1.96 -1135.07,90.37 -1414.19,126.93 -279.2,36.46 -1069.68,199.45 -1069.68,199.45 m 5819.99,625.56 c 140.3,-17.08 297.5,-71.42 398.9,-126.93 101.2,-55.6 41.4,-87.06 -9.1,-145.14 -50.6,-57.96 -127,-190.33 -127,-190.33 l -670.8,-426.12 m -2937.22,788.7 c 0,0 942.76,-0.41 1269.16,-9 326.36,-8.67 1387.06,-36.22 1387.06,-36.22 M 8150.17,6752 c -32.04,19.38 -177.42,9.79 -226.64,0 -49.22,-9.77 -54.42,-72.43 -54.42,-72.43 0,0 -61.8,-5.61 -136.02,0 -74.13,5.53 -117.75,45.22 -117.75,45.22 88.42,75.17 329.77,105.09 552.87,99.82 223.17,-5.43 308.27,-99.82 308.27,-99.82 0,0 -34.17,-41.4 -90.62,-45.22 -56.46,-3.91 -199.46,-9.17 -199.46,-9.17 0,0 -4.16,62.3 -36.23,81.6 z m 480.44,63.43 c 0,0 40.82,-38.78 54.42,-63.43 13.52,-24.65 15.73,-57.47 45.32,-99.72 29.58,-42.17 99.72,-145.04 99.72,-145.04 188.4,-331.23 262.96,-643.58 262.96,-643.58 m 45.33,634.57 c 133.05,-258.55 199.35,-634.57 199.35,-634.57 m 1767.79,63.41 c 0,0 386.9,228.03 453.2,262.89 66.4,34.85 36.3,90.62 36.3,90.62 l -54.3,117.93 m -5439.36,-226.66 -226.66,308.18 m 99.72,0 271.98,-335.39 m 2175.78,362.6 c 211.19,-177 426.1,-634.57 426.1,-634.57" /></g><path
         id="path90"
         style="fill:none;stroke:#dfdfdf;stroke-width:600;stroke-linecap:round;stroke-linejoin:round;stroke-miterlimit:10;stroke-dasharray:none;stroke-opacity:1"
         d="m 2226.29,7994.53 c 0,0 703.63,-224.41 2578.16,-573.01 1874.5,-348.43 4781.45,-638.98 4781.45,-638.98" /><path
         id="path92"
         style="fill:none;stroke:#dfdfdf;stroke-width:600;stroke-linecap:round;stroke-linejoin:round;stroke-miterlimit:10;stroke-dasharray:none;stroke-opacity:1"
         d="m 14147.3,3191.02 c 0,0 331.2,172.1 396.5,220.27 65.3,47.93 135,164.49 -44,154.14 -179.2,-10.51 -592.1,-82.03 -374.7,-198.36 l -88,-44.02" /><g
         transform="scale(1.17344)"
         id="g94"><path
           id="path96"
           style="fill:none;stroke:#dfdfdf;stroke-width:511.31698608;stroke-linecap:round;stroke-linejoin:round;stroke-miterlimit:10;stroke-dasharray:none;stroke-opacity:1"
           d="m 11342.7,2475.09 c 0,321.58 150.9,544.71 300.4,544.71 149.5,0 469.5,-289.18 469.5,-544.71 m 0,0 c 0,-255.52 -320,-544.5 -469.5,-544.5 -149.5,0 -300.4,223.1 -300.4,544.5 m 638.3,-356.62 c 0,0 323.3,-48.6 394.3,-56.52 71.2,-7.76 124,-103.73 150.2,-169.04 26.3,-65.18 180.9,-682.43 225.4,-882.29 44.6,-200.232 -9.4,-407.692 -112.6,-375.631 -103.1,31.684 -530.7,329.287 -694.8,544.501 -164.1,215.02 -498,761.32 -676,957.66 0,0 15.8,58.65 112.6,56.19 m 244.1,-507.02 c 0,0 -1185.3,19.37 -1370.8,19.04 -185.2,-0.53 -520.89,-62.02 -713.54,-75.2 -192.48,-13.22 -1822.86,-42.28 -2441.18,-37.72 -617.93,4.96 -1232.21,18.51 -1746.26,56.56 -514.05,37.84 -993.94,104.43 -1258.09,187.71 -264.34,83.3 -1183.08,394.31 -1183.08,394.31 l -93.85,112.71 c 0,0 -443.44,288.46 -638.58,469.48 -194.94,180.86 -949.03,1095.9 -1107.85,1314.44 -158.858,218.38 -316.308,494.88 -319.104,657.06 -2.999,162.39 74.993,450.83 74.993,450.83 M 16300,1649 12582.1,1667.64 M 1240.01,4090.17 c 0,0 -345.341,867.48 -413.151,1182.89 -67.776,315.58 -187.712,1180.79 -187.712,2610.22 M 789.379,5517.13 c 0,0 333.351,-492.37 488.151,-694.74 154.96,-202.32 805.16,-1004.48 1070.37,-1276.92 265.21,-272.44 588.18,-574.64 751.09,-694.74 163.05,-120.28 550.67,-345.51 995.34,-450.66 444.68,-105.13 829.26,-203.94 1014.02,-338.12 0,0 -573.41,-68.68 -1258.09,131.39 -684.88,200.4 -1039.05,374.03 -1539.88,901.46 -500.83,527.43 -691.38,804.46 -788.78,1070.37 -97.04,265.91 -150.19,544.5 -150.19,544.5 m 244.23,-300.43 c 0,0 -125.73,600.37 -150.2,995.38 -24.67,394.8 -37.68,1774.43 -37.68,2478.66 M 3080.32,2869.4 c 0,0 1340.88,-149.53 2103.06,-206.59 762.18,-56.86 1366.21,-92.08 1821.44,-112.51 455.42,-20.61 1800.49,-73.8 2234.61,-94.04 434.09,-19.91 2103.27,-93.88 2103.27,-93.88 m -2197.14,93.88 c 0,0 21.3,85.58 131.55,131.55 109.89,45.94 209.92,156.56 206.39,356.79 m 94.04,-375.63 c 0,0 -1623.86,275.23 -2647.73,506.99 -1024.06,231.92 -3060.18,826.47 -3680.62,1051.69 -620.23,225.07 -1933.98,901.33 -1933.98,901.33 M 11455.3,1874.23 c 0,0 -1130.2,27.46 -1446,37.69 -315.71,9.85 -2123.07,68.14 -2704.05,93.87 -580.8,25.33 -2049.67,151.6 -2535.02,225.23 m 6290.67,450.64 -225.3,-300.44 c 0,0 -311.5,-352.73 -319.2,-431.79 -7.8,-79.26 -75.1,-244.07 -75.1,-244.07 m -638.52,732.22 1577.32,300.43" /></g><g
         transform="scale(1.1356)"
         id="g98"><path
           id="path100"
           style="fill:none;stroke:#b5b5b5;stroke-width:264.17800903;stroke-linecap:round;stroke-linejoin:round;stroke-miterlimit:10;stroke-dasharray:none;stroke-opacity:1"
           d="m 12962.4,14374.6 3337.6,38.7" /></g><path
         id="path102"
         style="fill:none;stroke:#b5b5b5;stroke-width:300;stroke-linecap:round;stroke-linejoin:round;stroke-miterlimit:10;stroke-dasharray:none;stroke-opacity:1"
         d="m 9585.9,11718.4 c 0,0 -2906.95,-290.4 -4781.45,-639 -1874.53,-348.6 -2578.16,-573 -2578.16,-573" /><path
         id="path104"
         style="fill:none;stroke:#b5b5b5;stroke-width:300;stroke-linecap:round;stroke-linejoin:round;stroke-miterlimit:10;stroke-dasharray:none;stroke-opacity:1"
         d="m 14037.1,15177.7 88,-43.8 c -217.4,-116.4 195.5,-187.9 374.7,-198.4 179,-10.4 109.3,106 44,154.3 -65.3,48 -396.5,220.3 -396.5,220.3" /><g
         transform="scale(1.17344)"
         id="g106"><path
           id="path108"
           style="fill:none;stroke:#b5b5b5;stroke-width:255.65899658;stroke-linecap:round;stroke-linejoin:round;stroke-miterlimit:10;stroke-dasharray:none;stroke-opacity:1"
           d="m 12112.6,13291.3 c 0,-255.5 -320,-544.5 -469.5,-544.5 -149.5,0 -300.4,223.1 -300.4,544.5 m 0,0 c 0,321.4 150.9,544.7 300.4,544.7 149.5,0 469.5,-289.2 469.5,-544.7 m -732.5,281.6 c -96.8,-2.3 -112.6,56.3 -112.6,56.3 178,196.4 511.9,742.7 676,957.7 164.1,215.2 591.7,512.8 694.8,544.7 103.2,31.9 157.2,-175.6 112.6,-375.6 -44.5,-200.1 -199.1,-817.3 -225.4,-882.5 -26.2,-65.3 -79,-161.3 -150.2,-169.1 -71,-7.7 -394.3,-56.3 -394.3,-56.3 M 826.859,10530.8 c 0,0 -77.992,288.7 -74.993,450.9 2.796,162.2 160.246,438.6 319.104,657 158.82,218.6 912.91,1133.8 1107.85,1314.6 195.14,180.9 638.58,469.4 638.58,469.4 l 93.85,112.9 c 0,0 918.74,310.8 1183.08,394.1 264.15,83.3 744.04,149.7 1258.09,187.7 514.05,38 1128.33,51.8 1746.26,56.5 618.32,4.6 2248.7,-24.4 2441.18,-37.5 192.65,-13.4 528.34,-74.8 713.54,-75.2 185.5,-0.5 1370.8,18.7 1370.8,18.7 m 957.9,18.8 3717.9,18.7 M 639.147,7883.28 c 0,1429.28 119.936,2294.42 187.712,2610.12 67.81,315.5 413.151,1183 413.151,1183 m 131.4,-619.7 c 0,0 53.15,278.4 150.19,544.5 97.4,266.1 287.95,543 788.78,1070.4 500.83,527.2 855,701 1539.88,901.3 684.68,200.4 1258.09,131.5 1258.09,131.5 -184.76,-134.2 -569.34,-233 -1014.02,-337.9 -444.67,-105.1 -832.29,-330.4 -995.34,-450.8 -162.91,-120.2 -485.88,-422.3 -751.09,-694.8 -265.21,-272.4 -915.41,-1074.6 -1070.37,-1276.9 -154.8,-202.3 -488.151,-694.9 -488.151,-694.9 M 1427.76,7883.28 c 0,704.09 13.01,2083.67 37.68,2478.72 24.47,394.8 150.2,995.3 150.2,995.3 M 11342.7,13404 c 0,0 -1669.18,-73.8 -2103.27,-94 -434.12,-19.9 -1779.19,-73.5 -2234.61,-93.9 -455.23,-20.3 -1059.26,-55.6 -1821.44,-112.7 C 4421.2,13046.5 3080.32,12897 3080.32,12897 m 6403.18,-75.2 c 3.53,200.2 -96.5,310.7 -206.39,356.8 -110.25,46.1 -131.55,131.4 -131.55,131.4 M 1315.21,10737.4 c 0,0 1313.75,676.3 1933.98,901.3 620.44,225.3 2656.56,819.8 3680.62,1051.7 1023.87,231.8 2647.73,507 2647.73,507 m -4807.31,338.2 c 485.35,73.6 1954.22,199.7 2535.02,225.2 580.98,25.4 2388.34,83.6 2704.05,93.9 315.8,10.2 1446,37.5 1446,37.5 m -1014,169 c 0,0 67.3,-165 75.1,-244.2 7.7,-79.1 319.2,-431.8 319.2,-431.8 l 225.3,-300.5 m 319.2,-56.3 -1577.32,300.4" /></g><g
         transform="scale(1.1356)"
         id="g110"><path
           id="path112"
           style="fill:none;stroke:#b5b5b5;stroke-width:264.17800903;stroke-linecap:round;stroke-linejoin:round;stroke-miterlimit:10;stroke-dasharray:none;stroke-opacity:1"
           d="m 16300,1878.45 -3337.6,38.77" /></g><g
         transform="scale(2.43065)"
         id="g114"><path
           id="path116"
           style="fill:none;stroke:#b5b5b5;stroke-width:123.4240036;stroke-linecap:round;stroke-linejoin:round;stroke-miterlimit:10;stroke-dasharray:none;stroke-opacity:1"
           d="m 14786,3805.79 c 0,-432.05 -43.1,-943.87 -90.6,-1242.02 -47.5,-298.16 -109,-411.49 -335.4,-552.96 -226.3,-141.37 -305.8,-195.03 -534.9,-190.44 -229.1,4.76 -1604.9,65.71 -1921.9,72.61 -316.8,6.88 -1759.1,48.29 -2075.96,45.32 -316.77,-3.07 -1260.38,-21.44 -1586.42,-45.32 -326.05,-23.9 -1004.75,-83.49 -1251.05,-126.93 -246.29,-43.45 -1180.47,-220.54 -1305.45,-244.77 -124.96,-24.24 -754.02,-158.64 -897.44,-145.04 -143.43,13.59 -237.03,41.75 -407.93,154.05 -171.05,112.4 -276.22,267.47 -299.17,380.8 -22.95,113.33 -115.11,699.61 -136.02,924.65 -21.94,237.03 -45.32,747.65 -45.32,970.05 M 6980.67,1766.05 c 0,0 -78.55,687.62 -90.62,988.16 -12.07,300.54 -27.21,837 -27.21,1051.58 M 11903.2,1902 c 0,0 97.7,265.33 136,734.29 38.5,469.04 45.3,997.94 45.3,1169.5 m -18,-888.43 c 0,0 123.6,113.42 135.9,326.38 12.3,212.98 18.2,496.08 18.2,562.05 m 3807.4,0 c 0,-359.12 -68.5,-1047.59 -136,-1341.66 -67.4,-294.17 -220.4,-614.85 -335.4,-752.49 -115.1,-137.65 -357.8,-270.28 -534.8,-344.5 -177.1,-74.31 -386.2,-140.7 -453.3,-163.23 -67.1,-22.37 -164.5,-65.97 -272,-81.54 -107.5,-15.46 -689.1,-76.51 -1006.2,-99.64 -317.2,-23.285 -1296.4,-63.496 -1296.4,-63.496 M 16300,3805.79 c 0,-543.93 -37.7,-1325.24 -217.6,-1849.4 -179.9,-524.13 -363.1,-592.22 -453.3,-643.56 -90.1,-51.53 -436,-189.69 -752.4,-253.96 -316.3,-64.186 -698.2,-150.661 -879.3,-190.357 -181.2,-39.612 -436.3,-68.266 -688.9,-81.526 -252.8,-13.276 -1378,-5.193 -1505,0 -126.9,5.27 -491.5,48.712 -643.6,45.305 -152.2,-3.391 -1020,-17.678 -1223.82,-18.192 C 9732.28,813.763 8222.7,796.083 8222.7,796.083 M 4236.99,1634.43 c 0,0 -2.82,77.03 -18.12,181.35 -15.3,104.23 -27.2,652.6 -27.2,652.6 l 29.5,20.57 c 0,0 -11.73,1259.21 -11.39,1402.8 0.42,143.51 18.19,824.93 18.19,824.93 l -54.42,-9.09 c 0,0 -25.32,-1054.83 -27.2,-1214.75 -2.21,-187.8 -21.34,-755.03 -27.21,-997.18 -5.87,-242.21 -20.57,-383.25 -9,-407.9 11.47,-24.75 30.94,-63.69 27.11,-108.83 -3.73,-45.23 -18.11,-154.14 -18.11,-154.14 m 96.58,4111.3 c 0,0 3.07,-99.9 -9.01,-208.46 -12.15,-108.57 -100.65,-940.74 -99.72,-1160.33 0.93,-219.68 -47.78,-1704.86 -47.78,-1704.86 l -45.32,9.09 c 0,0 20.07,1583.97 38.68,1895.23 18.71,311.16 18.11,670.78 18.11,670.78 0,0 47.27,83.92 45.32,135.94 -1.96,52.12 -9.01,199.54 -9.01,199.54 M 3898.44,3805.79 c 0,222.32 23.38,733.04 45.32,969.97 20.91,225.05 113.07,811.33 136.02,924.66 22.95,113.34 128.12,268.4 299.17,380.79 170.9,112.32 264.5,140.46 407.93,154.05 143.42,13.61 772.48,-120.8 897.44,-145.04 124.98,-24.14 1059.16,-201.32 1305.45,-244.76 246.3,-43.45 925,-103.04 1251.05,-126.84 326.04,-23.9 1269.65,-42.35 1586.42,-45.32 316.86,-3.06 1759.16,38.34 2075.96,45.32 317,6.87 1692.8,67.75 1921.9,72.43 229.1,4.76 308.6,-48.89 534.9,-190.36 226.4,-141.47 287.9,-254.8 335.4,-552.95 47.5,-298.24 90.6,-809.89 90.6,-1241.95 m -2565.4,0 c 0,65.89 -5.9,349.01 -18.2,561.98 -12.3,212.97 -135.9,326.38 -135.9,326.38 m 2221,-2737.76 c 0,0 195.5,-124.8 253.8,-154.03 58.3,-29.35 177.9,-23.31 244.7,-18.12 67,5.02 813.9,34.09 852.2,45.23 38.4,11.21 126.9,36.3 126.9,36.3 m -1341.6,-716.19 c 0,0 99.1,-37.4 253.8,-9.1 154.6,28.4 679.1,168.5 861.2,344.49 182,176.08 290.9,438.01 377.9,1096.91 M 6001.71,1412.46 c 0,0 790.48,162.98 1069.68,199.44 279.12,36.56 953.13,128.89 1414.19,126.94 461.05,-1.95 1207.51,14.63 1450.5,9.1 243.02,-5.7 1225.72,-55.68 1541.12,-81.62 326.6,-26.86 1270.8,-103.47 1378,-117.83 107.1,-14.37 280.2,-11.91 181.2,-72.53 -98.9,-60.7 -347.6,-175.98 -516.7,-199.44 -169.1,-23.46 -617.9,-51.78 -843.1,-63.43 -225.1,-11.81 -1239.4,-55.01 -1595.5,-72.61 -356.21,-17.6 -1342.25,-45.99 -1577.41,-45.3 -235.25,0.75 -1202.92,8.4 -1550.22,9.09 -347.21,0.6 -1105.92,27.21 -1105.92,27.21 m 5566.15,543.85 670.8,-426.02 c 0,0 76.4,-132.37 127,-190.44 50.5,-57.9 110.3,-89.446 9.1,-145.036 -101.4,-55.443 -258.6,-109.942 -398.9,-126.847 m -117.9,217.553 c 0,0 165.8,1.62 217.6,0 51.7,-1.61 72.5,-45.306 72.5,-45.306 0,0 -73.3,-78.651 -272,-99.736 -198.6,-21.003 -484.6,8.677 -580.2,72.528 0,0 30.3,41.479 90.7,45.305 60.5,3.743 172.3,9.096 172.3,9.096 0,0 -8.5,-64.945 54.4,-72.593 62.8,-7.57 173,-4.42 208.4,9.178 35.6,13.515 36.3,81.528 36.3,81.528 z m -571.1,-72.514 c 0,0 -1060.7,-27.642 -1387.06,-36.302 -326.4,-8.6 -1269.16,-9.019 -1269.16,-9.019 m -290.08,54.417 c 0,0 143,-5.27 199.46,-9.096 56.45,-3.825 90.62,-45.321 90.62,-45.321 0,0 -85.1,-94.365 -308.27,-99.718 -223.1,-5.369 -464.45,24.558 -552.87,99.718 0,0 43.62,39.793 117.75,45.321 74.22,5.609 136.02,0 136.02,0 0,0 5.2,-62.74 54.42,-72.528 49.22,-9.865 194.6,-19.299 226.64,0 32.07,19.3 36.23,81.624 36.23,81.624 z m 906.63,806.818 c 0,0 -74.56,-312.35 -262.96,-643.67 0,0 -70.14,-102.78 -99.72,-145.036 -29.59,-42.265 -31.8,-75.083 -45.32,-99.736 -13.6,-24.651 -54.42,-63.415 -54.42,-63.415 m 707.1,951.857 c 0,0 -66.3,-376.12 -199.35,-634.57 m 2402.34,99.72 54.3,117.83 c 0,0 30.1,55.78 -36.3,90.64 -66.3,34.86 -453.2,262.87 -453.2,262.87 M 6862.84,3805.79 c 0,214.42 15.14,751.05 27.21,1051.59 12.07,300.54 90.62,988.08 90.62,988.08 M 12084.5,3805.79 c 0,171.49 -6.8,700.38 -45.3,1169.43 -38.3,468.96 -136,734.21 -136,734.21 m 90.7,942.85 c 0,0 979.2,-40.21 1296.4,-63.43 317.1,-23.21 898.7,-84.16 1006.2,-99.72 107.5,-15.56 204.9,-59.17 272,-81.52 67.1,-22.54 276.2,-88.94 453.3,-163.33 177,-74.22 419.7,-206.77 534.8,-344.42 115,-137.55 268,-458.32 335.4,-752.4 67.5,-294.16 136,-982.63 136,-1341.67 M 8222.7,6815.43 c 0,0 1509.58,-17.6 1713.38,-18.11 203.82,-0.43 1071.62,-14.62 1223.82,-18.11 152.1,-3.49 516.7,40.05 643.6,45.4 127,5.19 1252.2,13.18 1505,0 252.6,-13.34 507.7,-41.99 688.9,-81.63 181.1,-39.69 563,-126.15 879.3,-190.44 316.4,-64.18 662.3,-202.32 752.4,-253.77 90.2,-51.42 273.4,-119.53 453.3,-643.66 179.9,-524.06 217.6,-1305.53 217.6,-1849.32 M 5874.68,1131.48 l 226.66,308.19 m 145.04,27.19 -271.98,-335.38 m 2873.86,607.36 c 0,0 -214.91,-457.48 -426.1,-634.57 m 7342.94,4641.46 c 0,0 -88.5,25.09 -126.9,36.3 -38.3,11.14 -785.2,40.23 -852.2,45.32 -66.8,5.1 -186.4,11.22 -244.7,-18.19 -58.3,-29.25 -253.8,-154.05 -253.8,-154.05 m 1628.9,-625.56 c -87,658.97 -195.9,920.82 -377.9,1096.98 -182.1,176.07 -706.6,316.17 -861.2,344.49 -154.7,28.32 -253.8,-9.1 -253.8,-9.1 m -2756,226.67 c -35.4,13.51 -145.6,16.56 -208.4,9.09 -62.9,-7.65 -54.4,-72.61 -54.4,-72.61 0,0 -111.8,5.36 -172.3,9.1 -60.4,3.74 -90.7,45.4 -90.7,45.4 95.6,63.77 381.6,93.52 580.2,72.43 198.7,-21.08 272,-99.72 272,-99.72 0,0 -20.8,-43.7 -72.5,-45.32 -51.8,-1.52 -217.6,0 -217.6,0 0,0 -0.7,68.01 -36.3,81.63 z M 5847.55,6480.03 c 0,0 758.71,26.52 1105.92,27.21 347.3,0.68 1314.97,8.41 1550.22,9.1 235.16,0.75 1221.2,-27.72 1577.41,-45.32 356.1,-17.6 1370.4,-60.78 1595.5,-72.51 225.2,-11.83 674,-40.05 843.1,-63.52 169.1,-23.38 417.8,-138.75 516.7,-199.45 99,-60.7 -74.1,-58.06 -181.2,-72.43 -107.2,-14.37 -1051.4,-91.14 -1378,-117.93 -315.4,-25.84 -1298.1,-75.99 -1541.12,-81.52 -242.99,-5.61 -989.45,10.96 -1450.5,9.01 -461.06,-1.96 -1135.07,90.37 -1414.19,126.93 -279.2,36.46 -1069.68,199.45 -1069.68,199.45 m 5819.99,625.56 c 140.3,-17.08 297.5,-71.42 398.9,-126.93 101.2,-55.6 41.4,-87.06 -9.1,-145.14 -50.6,-57.96 -127,-190.33 -127,-190.33 l -670.8,-426.12 m -2937.22,788.7 c 0,0 942.76,-0.41 1269.16,-9 326.36,-8.67 1387.06,-36.22 1387.06,-36.22 M 8150.17,6752 c -32.04,19.38 -177.42,9.79 -226.64,0 -49.22,-9.77 -54.42,-72.43 -54.42,-72.43 0,0 -61.8,-5.61 -136.02,0 -74.13,5.53 -117.75,45.22 -117.75,45.22 88.42,75.17 329.77,105.09 552.87,99.82 223.17,-5.43 308.27,-99.82 308.27,-99.82 0,0 -34.17,-41.4 -90.62,-45.22 -56.46,-3.91 -199.46,-9.17 -199.46,-9.17 0,0 -4.16,62.3 -36.23,81.6 z m 480.44,63.43 c 0,0 40.82,-38.78 54.42,-63.43 13.52,-24.65 15.73,-57.47 45.32,-99.72 29.58,-42.17 99.72,-145.04 99.72,-145.04 188.4,-331.23 262.96,-643.58 262.96,-643.58 m 45.33,634.57 c 133.05,-258.55 199.35,-634.57 199.35,-634.57 m 1767.79,63.41 c 0,0 386.9,228.03 453.2,262.89 66.4,34.85 36.3,90.62 36.3,90.62 l -54.3,117.93 m -5439.36,-226.66 -226.66,308.18 m 99.72,0 271.98,-335.39 m 2175.78,362.6 c 211.19,-177 426.1,-634.57 426.1,-634.57" /></g><path
         id="path118"
         style="fill:none;stroke:#b5b5b5;stroke-width:300;stroke-linecap:round;stroke-linejoin:round;stroke-miterlimit:10;stroke-dasharray:none;stroke-opacity:1"
         d="m 2226.29,7994.53 c 0,0 703.63,-224.41 2578.16,-573.01 1874.5,-348.43 4781.45,-638.98 4781.45,-638.98" /><path
         id="path120"
         style="fill:none;stroke:#b5b5b5;stroke-width:300;stroke-linecap:round;stroke-linejoin:round;stroke-miterlimit:10;stroke-dasharray:none;stroke-opacity:1"
         d="m 14147.3,3191.02 c 0,0 331.2,172.1 396.5,220.27 65.3,47.93 135,164.49 -44,154.14 -179.2,-10.51 -592.1,-82.03 -374.7,-198.36 l -88,-44.02" /><g
         transform="scale(1.17344)"
         id="g122"><path
           id="path124"
           style="fill:none;stroke:#b5b5b5;stroke-width:255.65899658;stroke-linecap:round;stroke-linejoin:round;stroke-miterlimit:10;stroke-dasharray:none;stroke-opacity:1"
           d="m 11342.7,2475.09 c 0,321.58 150.9,544.71 300.4,544.71 149.5,0 469.5,-289.18 469.5,-544.71 m 0,0 c 0,-255.52 -320,-544.5 -469.5,-544.5 -149.5,0 -300.4,223.1 -300.4,544.5 m 638.3,-356.62 c 0,0 323.3,-48.6 394.3,-56.52 71.2,-7.76 124,-103.73 150.2,-169.04 26.3,-65.18 180.9,-682.43 225.4,-882.29 44.6,-200.232 -9.4,-407.692 -112.6,-375.631 -103.1,31.684 -530.7,329.287 -694.8,544.501 -164.1,215.02 -498,761.32 -676,957.66 0,0 15.8,58.65 112.6,56.19 m 244.1,-507.02 c 0,0 -1185.3,19.37 -1370.8,19.04 -185.2,-0.53 -520.89,-62.02 -713.54,-75.2 -192.48,-13.22 -1822.86,-42.28 -2441.18,-37.72 -617.93,4.96 -1232.21,18.51 -1746.26,56.56 -514.05,37.84 -993.94,104.43 -1258.09,187.71 -264.34,83.3 -1183.08,394.31 -1183.08,394.31 l -93.85,112.71 c 0,0 -443.44,288.46 -638.58,469.48 -194.94,180.86 -949.03,1095.9 -1107.85,1314.44 -158.858,218.38 -316.308,494.88 -319.104,657.06 -2.999,162.39 74.993,450.83 74.993,450.83 M 16300,1649 12582.1,1667.64 M 1240.01,4090.17 c 0,0 -345.341,867.48 -413.151,1182.89 -67.776,315.58 -187.712,1180.79 -187.712,2610.22 M 789.379,5517.13 c 0,0 333.351,-492.37 488.151,-694.74 154.96,-202.32 805.16,-1004.48 1070.37,-1276.92 265.21,-272.44 588.18,-574.64 751.09,-694.74 163.05,-120.28 550.67,-345.51 995.34,-450.66 444.68,-105.13 829.26,-203.94 1014.02,-338.12 0,0 -573.41,-68.68 -1258.09,131.39 -684.88,200.4 -1039.05,374.03 -1539.88,901.46 -500.83,527.43 -691.38,804.46 -788.78,1070.37 -97.04,265.91 -150.19,544.5 -150.19,544.5 m 244.23,-300.43 c 0,0 -125.73,600.37 -150.2,995.38 -24.67,394.8 -37.68,1774.43 -37.68,2478.66 M 3080.32,2869.4 c 0,0 1340.88,-149.53 2103.06,-206.59 762.18,-56.86 1366.21,-92.08 1821.44,-112.51 455.42,-20.61 1800.49,-73.8 2234.61,-94.04 434.09,-19.91 2103.27,-93.88 2103.27,-93.88 m -2197.14,93.88 c 0,0 21.3,85.58 131.55,131.55 109.89,45.94 209.92,156.56 206.39,356.79 m 94.04,-375.63 c 0,0 -1623.86,275.23 -2647.73,506.99 -1024.06,231.92 -3060.18,826.47 -3680.62,1051.69 -620.23,225.07 -1933.98,901.33 -1933.98,901.33 M 11455.3,1874.23 c 0,0 -1130.2,27.46 -1446,37.69 -315.71,9.85 -2123.07,68.14 -2704.05,93.87 -580.8,25.33 -2049.67,151.6 -2535.02,225.23 m 6290.67,450.64 -225.3,-300.44 c 0,0 -311.5,-352.73 -319.2,-431.79 -7.8,-79.26 -75.1,-244.07 -75.1,-244.07 m -638.52,732.22 1577.32,300.43" /></g><g
         transform="scale(1.1356)"
         id="g126"><path
           id="path128"
           style="fill:none;stroke:#8b8b8b;stroke-width:132.08900452;stroke-linecap:round;stroke-linejoin:round;stroke-miterlimit:10;stroke-dasharray:none;stroke-opacity:1"
           d="m 12962.4,14374.6 3337.6,38.7" /></g><path
         id="path130"
         style="fill:none;stroke:#8b8b8b;stroke-width:150;stroke-linecap:round;stroke-linejoin:round;stroke-miterlimit:10;stroke-dasharray:none;stroke-opacity:1"
         d="m 9585.9,11718.4 c 0,0 -2906.95,-290.4 -4781.45,-639 -1874.53,-348.6 -2578.16,-573 -2578.16,-573" /><path
         id="path132"
         style="fill:none;stroke:#8b8b8b;stroke-width:150;stroke-linecap:round;stroke-linejoin:round;stroke-miterlimit:10;stroke-dasharray:none;stroke-opacity:1"
         d="m 14037.1,15177.7 88,-43.8 c -217.4,-116.4 195.5,-187.9 374.7,-198.4 179,-10.4 109.3,106 44,154.3 -65.3,48 -396.5,220.3 -396.5,220.3" /><g
         transform="scale(1.17344)"
         id="g134"><path
           id="path136"
           style="fill:none;stroke:#8b8b8b;stroke-width:127.82900238;stroke-linecap:round;stroke-linejoin:round;stroke-miterlimit:10;stroke-dasharray:none;stroke-opacity:1"
           d="m 12112.6,13291.3 c 0,-255.5 -320,-544.5 -469.5,-544.5 -149.5,0 -300.4,223.1 -300.4,544.5 m 0,0 c 0,321.4 150.9,544.7 300.4,544.7 149.5,0 469.5,-289.2 469.5,-544.7 m -732.5,281.6 c -96.8,-2.3 -112.6,56.3 -112.6,56.3 178,196.4 511.9,742.7 676,957.7 164.1,215.2 591.7,512.8 694.8,544.7 103.2,31.9 157.2,-175.6 112.6,-375.6 -44.5,-200.1 -199.1,-817.3 -225.4,-882.5 -26.2,-65.3 -79,-161.3 -150.2,-169.1 -71,-7.7 -394.3,-56.3 -394.3,-56.3 M 826.859,10530.8 c 0,0 -77.992,288.7 -74.993,450.9 2.796,162.2 160.246,438.6 319.104,657 158.82,218.6 912.91,1133.8 1107.85,1314.6 195.14,180.9 638.58,469.4 638.58,469.4 l 93.85,112.9 c 0,0 918.74,310.8 1183.08,394.1 264.15,83.3 744.04,149.7 1258.09,187.7 514.05,38 1128.33,51.8 1746.26,56.5 618.32,4.6 2248.7,-24.4 2441.18,-37.5 192.65,-13.4 528.34,-74.8 713.54,-75.2 185.5,-0.5 1370.8,18.7 1370.8,18.7 m 957.9,18.8 3717.9,18.7 M 639.147,7883.28 c 0,1429.28 119.936,2294.42 187.712,2610.12 67.81,315.5 413.151,1183 413.151,1183 m 131.4,-619.7 c 0,0 53.15,278.4 150.19,544.5 97.4,266.1 287.95,543 788.78,1070.4 500.83,527.2 855,701 1539.88,901.3 684.68,200.4 1258.09,131.5 1258.09,131.5 -184.76,-134.2 -569.34,-233 -1014.02,-337.9 -444.67,-105.1 -832.29,-330.4 -995.34,-450.8 -162.91,-120.2 -485.88,-422.3 -751.09,-694.8 -265.21,-272.4 -915.41,-1074.6 -1070.37,-1276.9 -154.8,-202.3 -488.151,-694.9 -488.151,-694.9 M 1427.76,7883.28 c 0,704.09 13.01,2083.67 37.68,2478.72 24.47,394.8 150.2,995.3 150.2,995.3 M 11342.7,13404 c 0,0 -1669.18,-73.8 -2103.27,-94 -434.12,-19.9 -1779.19,-73.5 -2234.61,-93.9 -455.23,-20.3 -1059.26,-55.6 -1821.44,-112.7 C 4421.2,13046.5 3080.32,12897 3080.32,12897 m 6403.18,-75.2 c 3.53,200.2 -96.5,310.7 -206.39,356.8 -110.25,46.1 -131.55,131.4 -131.55,131.4 M 1315.21,10737.4 c 0,0 1313.75,676.3 1933.98,901.3 620.44,225.3 2656.56,819.8 3680.62,1051.7 1023.87,231.8 2647.73,507 2647.73,507 m -4807.31,338.2 c 485.35,73.6 1954.22,199.7 2535.02,225.2 580.98,25.4 2388.34,83.6 2704.05,93.9 315.8,10.2 1446,37.5 1446,37.5 m -1014,169 c 0,0 67.3,-165 75.1,-244.2 7.7,-79.1 319.2,-431.8 319.2,-431.8 l 225.3,-300.5 m 319.2,-56.3 -1577.32,300.4" /></g><g
         transform="scale(1.1356)"
         id="g138"><path
           id="path140"
           style="fill:none;stroke:#8b8b8b;stroke-width:132.08900452;stroke-linecap:round;stroke-linejoin:round;stroke-miterlimit:10;stroke-dasharray:none;stroke-opacity:1"
           d="m 16300,1878.45 -3337.6,38.77" /></g><g
         transform="scale(2.43065)"
         id="g142"><path
           id="path144"
           style="fill:none;stroke:#8b8b8b;stroke-width:61.7118988;stroke-linecap:round;stroke-linejoin:round;stroke-miterlimit:10;stroke-dasharray:none;stroke-opacity:1"
           d="m 14786,3805.79 c 0,-432.05 -43.1,-943.87 -90.6,-1242.02 -47.5,-298.16 -109,-411.49 -335.4,-552.96 -226.3,-141.37 -305.8,-195.03 -534.9,-190.44 -229.1,4.76 -1604.9,65.71 -1921.9,72.61 -316.8,6.88 -1759.1,48.29 -2075.96,45.32 -316.77,-3.07 -1260.38,-21.44 -1586.42,-45.32 -326.05,-23.9 -1004.75,-83.49 -1251.05,-126.93 -246.29,-43.45 -1180.47,-220.54 -1305.45,-244.77 -124.96,-24.24 -754.02,-158.64 -897.44,-145.04 -143.43,13.59 -237.03,41.75 -407.93,154.05 -171.05,112.4 -276.22,267.47 -299.17,380.8 -22.95,113.33 -115.11,699.61 -136.02,924.65 -21.94,237.03 -45.32,747.65 -45.32,970.05 M 6980.67,1766.05 c 0,0 -78.55,687.62 -90.62,988.16 -12.07,300.54 -27.21,837 -27.21,1051.58 M 11903.2,1902 c 0,0 97.7,265.33 136,734.29 38.5,469.04 45.3,997.94 45.3,1169.5 m -18,-888.43 c 0,0 123.6,113.42 135.9,326.38 12.3,212.98 18.2,496.08 18.2,562.05 m 3807.4,0 c 0,-359.12 -68.5,-1047.59 -136,-1341.66 -67.4,-294.17 -220.4,-614.85 -335.4,-752.49 -115.1,-137.65 -357.8,-270.28 -534.8,-344.5 -177.1,-74.31 -386.2,-140.7 -453.3,-163.23 -67.1,-22.37 -164.5,-65.97 -272,-81.54 -107.5,-15.46 -689.1,-76.51 -1006.2,-99.64 -317.2,-23.285 -1296.4,-63.496 -1296.4,-63.496 M 16300,3805.79 c 0,-543.93 -37.7,-1325.24 -217.6,-1849.4 -179.9,-524.13 -363.1,-592.22 -453.3,-643.56 -90.1,-51.53 -436,-189.69 -752.4,-253.96 -316.3,-64.186 -698.2,-150.661 -879.3,-190.357 -181.2,-39.612 -436.3,-68.266 -688.9,-81.526 -252.8,-13.276 -1378,-5.193 -1505,0 -126.9,5.27 -491.5,48.712 -643.6,45.305 -152.2,-3.391 -1020,-17.678 -1223.82,-18.192 C 9732.28,813.763 8222.7,796.083 8222.7,796.083 M 4236.99,1634.43 c 0,0 -2.82,77.03 -18.12,181.35 -15.3,104.23 -27.2,652.6 -27.2,652.6 l 29.5,20.57 c 0,0 -11.73,1259.21 -11.39,1402.8 0.42,143.51 18.19,824.93 18.19,824.93 l -54.42,-9.09 c 0,0 -25.32,-1054.83 -27.2,-1214.75 -2.21,-187.8 -21.34,-755.03 -27.21,-997.18 -5.87,-242.21 -20.57,-383.25 -9,-407.9 11.47,-24.75 30.94,-63.69 27.11,-108.83 -3.73,-45.23 -18.11,-154.14 -18.11,-154.14 m 96.58,4111.3 c 0,0 3.07,-99.9 -9.01,-208.46 -12.15,-108.57 -100.65,-940.74 -99.72,-1160.33 0.93,-219.68 -47.78,-1704.86 -47.78,-1704.86 l -45.32,9.09 c 0,0 20.07,1583.97 38.68,1895.23 18.71,311.16 18.11,670.78 18.11,670.78 0,0 47.27,83.92 45.32,135.94 -1.96,52.12 -9.01,199.54 -9.01,199.54 M 3898.44,3805.79 c 0,222.32 23.38,733.04 45.32,969.97 20.91,225.05 113.07,811.33 136.02,924.66 22.95,113.34 128.12,268.4 299.17,380.79 170.9,112.32 264.5,140.46 407.93,154.05 143.42,13.61 772.48,-120.8 897.44,-145.04 124.98,-24.14 1059.16,-201.32 1305.45,-244.76 246.3,-43.45 925,-103.04 1251.05,-126.84 326.04,-23.9 1269.65,-42.35 1586.42,-45.32 316.86,-3.06 1759.16,38.34 2075.96,45.32 317,6.87 1692.8,67.75 1921.9,72.43 229.1,4.76 308.6,-48.89 534.9,-190.36 226.4,-141.47 287.9,-254.8 335.4,-552.95 47.5,-298.24 90.6,-809.89 90.6,-1241.95 m -2565.4,0 c 0,65.89 -5.9,349.01 -18.2,561.98 -12.3,212.97 -135.9,326.38 -135.9,326.38 m 2221,-2737.76 c 0,0 195.5,-124.8 253.8,-154.03 58.3,-29.35 177.9,-23.31 244.7,-18.12 67,5.02 813.9,34.09 852.2,45.23 38.4,11.21 126.9,36.3 126.9,36.3 m -1341.6,-716.19 c 0,0 99.1,-37.4 253.8,-9.1 154.6,28.4 679.1,168.5 861.2,344.49 182,176.08 290.9,438.01 377.9,1096.91 M 6001.71,1412.46 c 0,0 790.48,162.98 1069.68,199.44 279.12,36.56 953.13,128.89 1414.19,126.94 461.05,-1.95 1207.51,14.63 1450.5,9.1 243.02,-5.7 1225.72,-55.68 1541.12,-81.62 326.6,-26.86 1270.8,-103.47 1378,-117.83 107.1,-14.37 280.2,-11.91 181.2,-72.53 -98.9,-60.7 -347.6,-175.98 -516.7,-199.44 -169.1,-23.46 -617.9,-51.78 -843.1,-63.43 -225.1,-11.81 -1239.4,-55.01 -1595.5,-72.61 -356.21,-17.6 -1342.25,-45.99 -1577.41,-45.3 -235.25,0.75 -1202.92,8.4 -1550.22,9.09 -347.21,0.6 -1105.92,27.21 -1105.92,27.21 m 5566.15,543.85 670.8,-426.02 c 0,0 76.4,-132.37 127,-190.44 50.5,-57.9 110.3,-89.446 9.1,-145.036 -101.4,-55.443 -258.6,-109.942 -398.9,-126.847 m -117.9,217.553 c 0,0 165.8,1.62 217.6,0 51.7,-1.61 72.5,-45.306 72.5,-45.306 0,0 -73.3,-78.651 -272,-99.736 -198.6,-21.003 -484.6,8.677 -580.2,72.528 0,0 30.3,41.479 90.7,45.305 60.5,3.743 172.3,9.096 172.3,9.096 0,0 -8.5,-64.945 54.4,-72.593 62.8,-7.57 173,-4.42 208.4,9.178 35.6,13.515 36.3,81.528 36.3,81.528 z m -571.1,-72.514 c 0,0 -1060.7,-27.642 -1387.06,-36.302 -326.4,-8.6 -1269.16,-9.019 -1269.16,-9.019 m -290.08,54.417 c 0,0 143,-5.27 199.46,-9.096 56.45,-3.825 90.62,-45.321 90.62,-45.321 0,0 -85.1,-94.365 -308.27,-99.718 -223.1,-5.369 -464.45,24.558 -552.87,99.718 0,0 43.62,39.793 117.75,45.321 74.22,5.609 136.02,0 136.02,0 0,0 5.2,-62.74 54.42,-72.528 49.22,-9.865 194.6,-19.299 226.64,0 32.07,19.3 36.23,81.624 36.23,81.624 z m 906.63,806.818 c 0,0 -74.56,-312.35 -262.96,-643.67 0,0 -70.14,-102.78 -99.72,-145.036 -29.59,-42.265 -31.8,-75.083 -45.32,-99.736 -13.6,-24.651 -54.42,-63.415 -54.42,-63.415 m 707.1,951.857 c 0,0 -66.3,-376.12 -199.35,-634.57 m 2402.34,99.72 54.3,117.83 c 0,0 30.1,55.78 -36.3,90.64 -66.3,34.86 -453.2,262.87 -453.2,262.87 M 6862.84,3805.79 c 0,214.42 15.14,751.05 27.21,1051.59 12.07,300.54 90.62,988.08 90.62,988.08 M 12084.5,3805.79 c 0,171.49 -6.8,700.38 -45.3,1169.43 -38.3,468.96 -136,734.21 -136,734.21 m 90.7,942.85 c 0,0 979.2,-40.21 1296.4,-63.43 317.1,-23.21 898.7,-84.16 1006.2,-99.72 107.5,-15.56 204.9,-59.17 272,-81.52 67.1,-22.54 276.2,-88.94 453.3,-163.33 177,-74.22 419.7,-206.77 534.8,-344.42 115,-137.55 268,-458.32 335.4,-752.4 67.5,-294.16 136,-982.63 136,-1341.67 M 8222.7,6815.43 c 0,0 1509.58,-17.6 1713.38,-18.11 203.82,-0.43 1071.62,-14.62 1223.82,-18.11 152.1,-3.49 516.7,40.05 643.6,45.4 127,5.19 1252.2,13.18 1505,0 252.6,-13.34 507.7,-41.99 688.9,-81.63 181.1,-39.69 563,-126.15 879.3,-190.44 316.4,-64.18 662.3,-202.32 752.4,-253.77 90.2,-51.42 273.4,-119.53 453.3,-643.66 179.9,-524.06 217.6,-1305.53 217.6,-1849.32 M 5874.68,1131.48 l 226.66,308.19 m 145.04,27.19 -271.98,-335.38 m 2873.86,607.36 c 0,0 -214.91,-457.48 -426.1,-634.57 m 7342.94,4641.46 c 0,0 -88.5,25.09 -126.9,36.3 -38.3,11.14 -785.2,40.23 -852.2,45.32 -66.8,5.1 -186.4,11.22 -244.7,-18.19 -58.3,-29.25 -253.8,-154.05 -253.8,-154.05 m 1628.9,-625.56 c -87,658.97 -195.9,920.82 -377.9,1096.98 -182.1,176.07 -706.6,316.17 -861.2,344.49 -154.7,28.32 -253.8,-9.1 -253.8,-9.1 m -2756,226.67 c -35.4,13.51 -145.6,16.56 -208.4,9.09 -62.9,-7.65 -54.4,-72.61 -54.4,-72.61 0,0 -111.8,5.36 -172.3,9.1 -60.4,3.74 -90.7,45.4 -90.7,45.4 95.6,63.77 381.6,93.52 580.2,72.43 198.7,-21.08 272,-99.72 272,-99.72 0,0 -20.8,-43.7 -72.5,-45.32 -51.8,-1.52 -217.6,0 -217.6,0 0,0 -0.7,68.01 -36.3,81.63 z M 5847.55,6480.03 c 0,0 758.71,26.52 1105.92,27.21 347.3,0.68 1314.97,8.41 1550.22,9.1 235.16,0.75 1221.2,-27.72 1577.41,-45.32 356.1,-17.6 1370.4,-60.78 1595.5,-72.51 225.2,-11.83 674,-40.05 843.1,-63.52 169.1,-23.38 417.8,-138.75 516.7,-199.45 99,-60.7 -74.1,-58.06 -181.2,-72.43 -107.2,-14.37 -1051.4,-91.14 -1378,-117.93 -315.4,-25.84 -1298.1,-75.99 -1541.12,-81.52 -242.99,-5.61 -989.45,10.96 -1450.5,9.01 -461.06,-1.96 -1135.07,90.37 -1414.19,126.93 -279.2,36.46 -1069.68,199.45 -1069.68,199.45 m 5819.99,625.56 c 140.3,-17.08 297.5,-71.42 398.9,-126.93 101.2,-55.6 41.4,-87.06 -9.1,-145.14 -50.6,-57.96 -127,-190.33 -127,-190.33 l -670.8,-426.12 m -2937.22,788.7 c 0,0 942.76,-0.41 1269.16,-9 326.36,-8.67 1387.06,-36.22 1387.06,-36.22 M 8150.17,6752 c -32.04,19.38 -177.42,9.79 -226.64,0 -49.22,-9.77 -54.42,-72.43 -54.42,-72.43 0,0 -61.8,-5.61 -136.02,0 -74.13,5.53 -117.75,45.22 -117.75,45.22 88.42,75.17 329.77,105.09 552.87,99.82 223.17,-5.43 308.27,-99.82 308.27,-99.82 0,0 -34.17,-41.4 -90.62,-45.22 -56.46,-3.91 -199.46,-9.17 -199.46,-9.17 0,0 -4.16,62.3 -36.23,81.6 z m 480.44,63.43 c 0,0 40.82,-38.78 54.42,-63.43 13.52,-24.65 15.73,-57.47 45.32,-99.72 29.58,-42.17 99.72,-145.04 99.72,-145.04 188.4,-331.23 262.96,-643.58 262.96,-643.58 m 45.33,634.57 c 133.05,-258.55 199.35,-634.57 199.35,-634.57 m 1767.79,63.41 c 0,0 386.9,228.03 453.2,262.89 66.4,34.85 36.3,90.62 36.3,90.62 l -54.3,117.93 m -5439.36,-226.66 -226.66,308.18 m 99.72,0 271.98,-335.39 m 2175.78,362.6 c 211.19,-177 426.1,-634.57 426.1,-634.57" /></g><path
         id="path146"
         style="fill:none;stroke:#8b8b8b;stroke-width:150;stroke-linecap:round;stroke-linejoin:round;stroke-miterlimit:10;stroke-dasharray:none;stroke-opacity:1"
         d="m 2226.29,7994.53 c 0,0 703.63,-224.41 2578.16,-573.01 1874.5,-348.43 4781.45,-638.98 4781.45,-638.98" /><path
         id="path148"
         style="fill:none;stroke:#8b8b8b;stroke-width:150;stroke-linecap:round;stroke-linejoin:round;stroke-miterlimit:10;stroke-dasharray:none;stroke-opacity:1"
         d="m 14147.3,3191.02 c 0,0 331.2,172.1 396.5,220.27 65.3,47.93 135,164.49 -44,154.14 -179.2,-10.51 -592.1,-82.03 -374.7,-198.36 l -88,-44.02" /><g
         transform="scale(1.17344)"
         id="g150"><path
           id="path152"
           style="fill:none;stroke:#8b8b8b;stroke-width:127.82900238;stroke-linecap:round;stroke-linejoin:round;stroke-miterlimit:10;stroke-dasharray:none;stroke-opacity:1"
           d="m 11342.7,2475.09 c 0,321.58 150.9,544.71 300.4,544.71 149.5,0 469.5,-289.18 469.5,-544.71 m 0,0 c 0,-255.52 -320,-544.5 -469.5,-544.5 -149.5,0 -300.4,223.1 -300.4,544.5 m 638.3,-356.62 c 0,0 323.3,-48.6 394.3,-56.52 71.2,-7.76 124,-103.73 150.2,-169.04 26.3,-65.18 180.9,-682.43 225.4,-882.29 44.6,-200.232 -9.4,-407.692 -112.6,-375.631 -103.1,31.684 -530.7,329.287 -694.8,544.501 -164.1,215.02 -498,761.32 -676,957.66 0,0 15.8,58.65 112.6,56.19 m 244.1,-507.02 c 0,0 -1185.3,19.37 -1370.8,19.04 -185.2,-0.53 -520.89,-62.02 -713.54,-75.2 -192.48,-13.22 -1822.86,-42.28 -2441.18,-37.72 -617.93,4.96 -1232.21,18.51 -1746.26,56.56 -514.05,37.84 -993.94,104.43 -1258.09,187.71 -264.34,83.3 -1183.08,394.31 -1183.08,394.31 l -93.85,112.71 c 0,0 -443.44,288.46 -638.58,469.48 -194.94,180.86 -949.03,1095.9 -1107.85,1314.44 -158.858,218.38 -316.308,494.88 -319.104,657.06 -2.999,162.39 74.993,450.83 74.993,450.83 M 16300,1649 12582.1,1667.64 M 1240.01,4090.17 c 0,0 -345.341,867.48 -413.151,1182.89 -67.776,315.58 -187.712,1180.79 -187.712,2610.22 M 789.379,5517.13 c 0,0 333.351,-492.37 488.151,-694.74 154.96,-202.32 805.16,-1004.48 1070.37,-1276.92 265.21,-272.44 588.18,-574.64 751.09,-694.74 163.05,-120.28 550.67,-345.51 995.34,-450.66 444.68,-105.13 829.26,-203.94 1014.02,-338.12 0,0 -573.41,-68.68 -1258.09,131.39 -684.88,200.4 -1039.05,374.03 -1539.88,901.46 -500.83,527.43 -691.38,804.46 -788.78,1070.37 -97.04,265.91 -150.19,544.5 -150.19,544.5 m 244.23,-300.43 c 0,0 -125.73,600.37 -150.2,995.38 -24.67,394.8 -37.68,1774.43 -37.68,2478.66 M 3080.32,2869.4 c 0,0 1340.88,-149.53 2103.06,-206.59 762.18,-56.86 1366.21,-92.08 1821.44,-112.51 455.42,-20.61 1800.49,-73.8 2234.61,-94.04 434.09,-19.91 2103.27,-93.88 2103.27,-93.88 m -2197.14,93.88 c 0,0 21.3,85.58 131.55,131.55 109.89,45.94 209.92,156.56 206.39,356.79 m 94.04,-375.63 c 0,0 -1623.86,275.23 -2647.73,506.99 -1024.06,231.92 -3060.18,826.47 -3680.62,1051.69 -620.23,225.07 -1933.98,901.33 -1933.98,901.33 M 11455.3,1874.23 c 0,0 -1130.2,27.46 -1446,37.69 -315.71,9.85 -2123.07,68.14 -2704.05,93.87 -580.8,25.33 -2049.67,151.6 -2535.02,225.23 m 6290.67,450.64 -225.3,-300.44 c 0,0 -311.5,-352.73 -319.2,-431.79 -7.8,-79.26 -75.1,-244.07 -75.1,-244.07 m -638.52,732.22 1577.32,300.43" /></g><g
         transform="scale(1.1356)"
         id="g154"><path
           id="path156"
           style="fill:none;stroke:#000000;stroke-width:63.69079971;stroke-linecap:round;stroke-linejoin:round;stroke-miterlimit:10;stroke-dasharray:none;stroke-opacity:1"
           d="m 12962.4,14374.6 3337.6,38.7" /></g><path
         id="path158"
         style="fill:none;stroke:#000000;stroke-width:72.32710266;stroke-linecap:round;stroke-linejoin:round;stroke-miterlimit:10;stroke-dasharray:none;stroke-opacity:1"
         d="m 9585.9,11718.4 c 0,0 -2906.95,-290.4 -4781.45,-639 -1874.53,-348.6 -2578.16,-573 -2578.16,-573" /><path
         id="path160"
         style="fill:none;stroke:#000000;stroke-width:72.32710266;stroke-linecap:round;stroke-linejoin:round;stroke-miterlimit:10;stroke-dasharray:none;stroke-opacity:1"
         d="m 14037.1,15177.7 88,-43.8 c -217.4,-116.4 195.5,-187.9 374.7,-198.4 179,-10.4 109.3,106 44,154.3 -65.3,48 -396.5,220.3 -396.5,220.3" /><g
         transform="scale(1.17344)"
         id="g162"><path
           id="path164"
           style="fill:none;stroke:#000000;stroke-width:61.63679886;stroke-linecap:round;stroke-linejoin:round;stroke-miterlimit:10;stroke-dasharray:none;stroke-opacity:1"
           d="m 12112.6,13291.3 c 0,-255.5 -320,-544.5 -469.5,-544.5 -149.5,0 -300.4,223.1 -300.4,544.5 m 0,0 c 0,321.4 150.9,544.7 300.4,544.7 149.5,0 469.5,-289.2 469.5,-544.7 m -732.5,281.6 c -96.8,-2.3 -112.6,56.3 -112.6,56.3 178,196.4 511.9,742.7 676,957.7 164.1,215.2 591.7,512.8 694.8,544.7 103.2,31.9 157.2,-175.6 112.6,-375.6 -44.5,-200.1 -199.1,-817.3 -225.4,-882.5 -26.2,-65.3 -79,-161.3 -150.2,-169.1 -71,-7.7 -394.3,-56.3 -394.3,-56.3 M 826.859,10530.8 c 0,0 -77.992,288.7 -74.993,450.9 2.796,162.2 160.246,438.6 319.104,657 158.82,218.6 912.91,1133.8 1107.85,1314.6 195.14,180.9 638.58,469.4 638.58,469.4 l 93.85,112.9 c 0,0 918.74,310.8 1183.08,394.1 264.15,83.3 744.04,149.7 1258.09,187.7 514.05,38 1128.33,51.8 1746.26,56.5 618.32,4.6 2248.7,-24.4 2441.18,-37.5 192.65,-13.4 528.34,-74.8 713.54,-75.2 185.5,-0.5 1370.8,18.7 1370.8,18.7 m 957.9,18.8 3717.9,18.7 M 639.147,7883.28 c 0,1429.28 119.936,2294.42 187.712,2610.12 67.81,315.5 413.151,1183 413.151,1183 m 131.4,-619.7 c 0,0 53.15,278.4 150.19,544.5 97.4,266.1 287.95,543 788.78,1070.4 500.83,527.2 855,701 1539.88,901.3 684.68,200.4 1258.09,131.5 1258.09,131.5 -184.76,-134.2 -569.34,-233 -1014.02,-337.9 -444.67,-105.1 -832.29,-330.4 -995.34,-450.8 -162.91,-120.2 -485.88,-422.3 -751.09,-694.8 -265.21,-272.4 -915.41,-1074.6 -1070.37,-1276.9 -154.8,-202.3 -488.151,-694.9 -488.151,-694.9 M 1427.76,7883.28 c 0,704.09 13.01,2083.67 37.68,2478.72 24.47,394.8 150.2,995.3 150.2,995.3 M 11342.7,13404 c 0,0 -1669.18,-73.8 -2103.27,-94 -434.12,-19.9 -1779.19,-73.5 -2234.61,-93.9 -455.23,-20.3 -1059.26,-55.6 -1821.44,-112.7 C 4421.2,13046.5 3080.32,12897 3080.32,12897 m 6403.18,-75.2 c 3.53,200.2 -96.5,310.7 -206.39,356.8 -110.25,46.1 -131.55,131.4 -131.55,131.4 M 1315.21,10737.4 c 0,0 1313.75,676.3 1933.98,901.3 620.44,225.3 2656.56,819.8 3680.62,1051.7 1023.87,231.8 2647.73,507 2647.73,507 m -4807.31,338.2 c 485.35,73.6 1954.22,199.7 2535.02,225.2 580.98,25.4 2388.34,83.6 2704.05,93.9 315.8,10.2 1446,37.5 1446,37.5 m -1014,169 c 0,0 67.3,-165 75.1,-244.2 7.7,-79.1 319.2,-431.8 319.2,-431.8 l 225.3,-300.5 m 319.2,-56.3 -1577.32,300.4" /></g><g
         transform="scale(1.1356)"
         id="g166"><path
           id="path168"
           style="fill:none;stroke:#000000;stroke-width:63.69079971;stroke-linecap:round;stroke-linejoin:round;stroke-miterlimit:10;stroke-dasharray:none;stroke-opacity:1"
           d="m 16300,1878.45 -3337.6,38.77" /></g><g
         transform="scale(2.43065)"
         id="g170"><path
           id="path172"
           style="fill:none;stroke:#000000;stroke-width:29.75629997;stroke-linecap:round;stroke-linejoin:round;stroke-miterlimit:10;stroke-dasharray:none;stroke-opacity:1"
           d="m 14786,3805.79 c 0,-432.05 -43.1,-943.87 -90.6,-1242.02 -47.5,-298.16 -109,-411.49 -335.4,-552.96 -226.3,-141.37 -305.8,-195.03 -534.9,-190.44 -229.1,4.76 -1604.9,65.71 -1921.9,72.61 -316.8,6.88 -1759.1,48.29 -2075.96,45.32 -316.77,-3.07 -1260.38,-21.44 -1586.42,-45.32 -326.05,-23.9 -1004.75,-83.49 -1251.05,-126.93 -246.29,-43.45 -1180.47,-220.54 -1305.45,-244.77 -124.96,-24.24 -754.02,-158.64 -897.44,-145.04 -143.43,13.59 -237.03,41.75 -407.93,154.05 -171.05,112.4 -276.22,267.47 -299.17,380.8 -22.95,113.33 -115.11,699.61 -136.02,924.65 -21.94,237.03 -45.32,747.65 -45.32,970.05 M 6980.67,1766.05 c 0,0 -78.55,687.62 -90.62,988.16 -12.07,300.54 -27.21,837 -27.21,1051.58 M 11903.2,1902 c 0,0 97.7,265.33 136,734.29 38.5,469.04 45.3,997.94 45.3,1169.5 m -18,-888.43 c 0,0 123.6,113.42 135.9,326.38 12.3,212.98 18.2,496.08 18.2,562.05 m 3807.4,0 c 0,-359.12 -68.5,-1047.59 -136,-1341.66 -67.4,-294.17 -220.4,-614.85 -335.4,-752.49 -115.1,-137.65 -357.8,-270.28 -534.8,-344.5 -177.1,-74.31 -386.2,-140.7 -453.3,-163.23 -67.1,-22.37 -164.5,-65.97 -272,-81.54 -107.5,-15.46 -689.1,-76.51 -1006.2,-99.64 -317.2,-23.285 -1296.4,-63.496 -1296.4,-63.496 M 16300,3805.79 c 0,-543.93 -37.7,-1325.24 -217.6,-1849.4 -179.9,-524.13 -363.1,-592.22 -453.3,-643.56 -90.1,-51.53 -436,-189.69 -752.4,-253.96 -316.3,-64.186 -698.2,-150.661 -879.3,-190.357 -181.2,-39.612 -436.3,-68.266 -688.9,-81.526 -252.8,-13.276 -1378,-5.193 -1505,0 -126.9,5.27 -491.5,48.712 -643.6,45.305 -152.2,-3.391 -1020,-17.678 -1223.82,-18.192 C 9732.28,813.763 8222.7,796.083 8222.7,796.083 M 4236.99,1634.43 c 0,0 -2.82,77.03 -18.12,181.35 -15.3,104.23 -27.2,652.6 -27.2,652.6 l 29.5,20.57 c 0,0 -11.73,1259.21 -11.39,1402.8 0.42,143.51 18.19,824.93 18.19,824.93 l -54.42,-9.09 c 0,0 -25.32,-1054.83 -27.2,-1214.75 -2.21,-187.8 -21.34,-755.03 -27.21,-997.18 -5.87,-242.21 -20.57,-383.25 -9,-407.9 11.47,-24.75 30.94,-63.69 27.11,-108.83 -3.73,-45.23 -18.11,-154.14 -18.11,-154.14 m 96.58,4111.3 c 0,0 3.07,-99.9 -9.01,-208.46 -12.15,-108.57 -100.65,-940.74 -99.72,-1160.33 0.93,-219.68 -47.78,-1704.86 -47.78,-1704.86 l -45.32,9.09 c 0,0 20.07,1583.97 38.68,1895.23 18.71,311.16 18.11,670.78 18.11,670.78 0,0 47.27,83.92 45.32,135.94 -1.96,52.12 -9.01,199.54 -9.01,199.54 M 3898.44,3805.79 c 0,222.32 23.38,733.04 45.32,969.97 20.91,225.05 113.07,811.33 136.02,924.66 22.95,113.34 128.12,268.4 299.17,380.79 170.9,112.32 264.5,140.46 407.93,154.05 143.42,13.61 772.48,-120.8 897.44,-145.04 124.98,-24.14 1059.16,-201.32 1305.45,-244.76 246.3,-43.45 925,-103.04 1251.05,-126.84 326.04,-23.9 1269.65,-42.35 1586.42,-45.32 316.86,-3.06 1759.16,38.34 2075.96,45.32 317,6.87 1692.8,67.75 1921.9,72.43 229.1,4.76 308.6,-48.89 534.9,-190.36 226.4,-141.47 287.9,-254.8 335.4,-552.95 47.5,-298.24 90.6,-809.89 90.6,-1241.95 m -2565.4,0 c 0,65.89 -5.9,349.01 -18.2,561.98 -12.3,212.97 -135.9,326.38 -135.9,326.38 m 2221,-2737.76 c 0,0 195.5,-124.8 253.8,-154.03 58.3,-29.35 177.9,-23.31 244.7,-18.12 67,5.02 813.9,34.09 852.2,45.23 38.4,11.21 126.9,36.3 126.9,36.3 m -1341.6,-716.19 c 0,0 99.1,-37.4 253.8,-9.1 154.6,28.4 679.1,168.5 861.2,344.49 182,176.08 290.9,438.01 377.9,1096.91 M 6001.71,1412.46 c 0,0 790.48,162.98 1069.68,199.44 279.12,36.56 953.13,128.89 1414.19,126.94 461.05,-1.95 1207.51,14.63 1450.5,9.1 243.02,-5.7 1225.72,-55.68 1541.12,-81.62 326.6,-26.86 1270.8,-103.47 1378,-117.83 107.1,-14.37 280.2,-11.91 181.2,-72.53 -98.9,-60.7 -347.6,-175.98 -516.7,-199.44 -169.1,-23.46 -617.9,-51.78 -843.1,-63.43 -225.1,-11.81 -1239.4,-55.01 -1595.5,-72.61 -356.21,-17.6 -1342.25,-45.99 -1577.41,-45.3 -235.25,0.75 -1202.92,8.4 -1550.22,9.09 -347.21,0.6 -1105.92,27.21 -1105.92,27.21 m 5566.15,543.85 670.8,-426.02 c 0,0 76.4,-132.37 127,-190.44 50.5,-57.9 110.3,-89.446 9.1,-145.036 -101.4,-55.443 -258.6,-109.942 -398.9,-126.847 m -117.9,217.553 c 0,0 165.8,1.62 217.6,0 51.7,-1.61 72.5,-45.306 72.5,-45.306 0,0 -73.3,-78.651 -272,-99.736 -198.6,-21.003 -484.6,8.677 -580.2,72.528 0,0 30.3,41.479 90.7,45.305 60.5,3.743 172.3,9.096 172.3,9.096 0,0 -8.5,-64.945 54.4,-72.593 62.8,-7.57 173,-4.42 208.4,9.178 35.6,13.515 36.3,81.528 36.3,81.528 z m -571.1,-72.514 c 0,0 -1060.7,-27.642 -1387.06,-36.302 -326.4,-8.6 -1269.16,-9.019 -1269.16,-9.019 m -290.08,54.417 c 0,0 143,-5.27 199.46,-9.096 56.45,-3.825 90.62,-45.321 90.62,-45.321 0,0 -85.1,-94.365 -308.27,-99.718 -223.1,-5.369 -464.45,24.558 -552.87,99.718 0,0 43.62,39.793 117.75,45.321 74.22,5.609 136.02,0 136.02,0 0,0 5.2,-62.74 54.42,-72.528 49.22,-9.865 194.6,-19.299 226.64,0 32.07,19.3 36.23,81.624 36.23,81.624 z m 906.63,806.818 c 0,0 -74.56,-312.35 -262.96,-643.67 0,0 -70.14,-102.78 -99.72,-145.036 -29.59,-42.265 -31.8,-75.083 -45.32,-99.736 -13.6,-24.651 -54.42,-63.415 -54.42,-63.415 m 707.1,951.857 c 0,0 -66.3,-376.12 -199.35,-634.57 m 2402.34,99.72 54.3,117.83 c 0,0 30.1,55.78 -36.3,90.64 -66.3,34.86 -453.2,262.87 -453.2,262.87 M 6862.84,3805.79 c 0,214.42 15.14,751.05 27.21,1051.59 12.07,300.54 90.62,988.08 90.62,988.08 M 12084.5,3805.79 c 0,171.49 -6.8,700.38 -45.3,1169.43 -38.3,468.96 -136,734.21 -136,734.21 m 90.7,942.85 c 0,0 979.2,-40.21 1296.4,-63.43 317.1,-23.21 898.7,-84.16 1006.2,-99.72 107.5,-15.56 204.9,-59.17 272,-81.52 67.1,-22.54 276.2,-88.94 453.3,-163.33 177,-74.22 419.7,-206.77 534.8,-344.42 115,-137.55 268,-458.32 335.4,-752.4 67.5,-294.16 136,-982.63 136,-1341.67 M 8222.7,6815.43 c 0,0 1509.58,-17.6 1713.38,-18.11 203.82,-0.43 1071.62,-14.62 1223.82,-18.11 152.1,-3.49 516.7,40.05 643.6,45.4 127,5.19 1252.2,13.18 1505,0 252.6,-13.34 507.7,-41.99 688.9,-81.63 181.1,-39.69 563,-126.15 879.3,-190.44 316.4,-64.18 662.3,-202.32 752.4,-253.77 90.2,-51.42 273.4,-119.53 453.3,-643.66 179.9,-524.06 217.6,-1305.53 217.6,-1849.32 M 5874.68,1131.48 l 226.66,308.19 m 145.04,27.19 -271.98,-335.38 m 2873.86,607.36 c 0,0 -214.91,-457.48 -426.1,-634.57 m 7342.94,4641.46 c 0,0 -88.5,25.09 -126.9,36.3 -38.3,11.14 -785.2,40.23 -852.2,45.32 -66.8,5.1 -186.4,11.22 -244.7,-18.19 -58.3,-29.25 -253.8,-154.05 -253.8,-154.05 m 1628.9,-625.56 c -87,658.97 -195.9,920.82 -377.9,1096.98 -182.1,176.07 -706.6,316.17 -861.2,344.49 -154.7,28.32 -253.8,-9.1 -253.8,-9.1 m -2756,226.67 c -35.4,13.51 -145.6,16.56 -208.4,9.09 -62.9,-7.65 -54.4,-72.61 -54.4,-72.61 0,0 -111.8,5.36 -172.3,9.1 -60.4,3.74 -90.7,45.4 -90.7,45.4 95.6,63.77 381.6,93.52 580.2,72.43 198.7,-21.08 272,-99.72 272,-99.72 0,0 -20.8,-43.7 -72.5,-45.32 -51.8,-1.52 -217.6,0 -217.6,0 0,0 -0.7,68.01 -36.3,81.63 z M 5847.55,6480.03 c 0,0 758.71,26.52 1105.92,27.21 347.3,0.68 1314.97,8.41 1550.22,9.1 235.16,0.75 1221.2,-27.72 1577.41,-45.32 356.1,-17.6 1370.4,-60.78 1595.5,-72.51 225.2,-11.83 674,-40.05 843.1,-63.52 169.1,-23.38 417.8,-138.75 516.7,-199.45 99,-60.7 -74.1,-58.06 -181.2,-72.43 -107.2,-14.37 -1051.4,-91.14 -1378,-117.93 -315.4,-25.84 -1298.1,-75.99 -1541.12,-81.52 -242.99,-5.61 -989.45,10.96 -1450.5,9.01 -461.06,-1.96 -1135.07,90.37 -1414.19,126.93 -279.2,36.46 -1069.68,199.45 -1069.68,199.45 m 5819.99,625.56 c 140.3,-17.08 297.5,-71.42 398.9,-126.93 101.2,-55.6 41.4,-87.06 -9.1,-145.14 -50.6,-57.96 -127,-190.33 -127,-190.33 l -670.8,-426.12 m -2937.22,788.7 c 0,0 942.76,-0.41 1269.16,-9 326.36,-8.67 1387.06,-36.22 1387.06,-36.22 M 8150.17,6752 c -32.04,19.38 -177.42,9.79 -226.64,0 -49.22,-9.77 -54.42,-72.43 -54.42,-72.43 0,0 -61.8,-5.61 -136.02,0 -74.13,5.53 -117.75,45.22 -117.75,45.22 88.42,75.17 329.77,105.09 552.87,99.82 223.17,-5.43 308.27,-99.82 308.27,-99.82 0,0 -34.17,-41.4 -90.62,-45.22 -56.46,-3.91 -199.46,-9.17 -199.46,-9.17 0,0 -4.16,62.3 -36.23,81.6 z m 480.44,63.43 c 0,0 40.82,-38.78 54.42,-63.43 13.52,-24.65 15.73,-57.47 45.32,-99.72 29.58,-42.17 99.72,-145.04 99.72,-145.04 188.4,-331.23 262.96,-643.58 262.96,-643.58 m 45.33,634.57 c 133.05,-258.55 199.35,-634.57 199.35,-634.57 m 1767.79,63.41 c 0,0 386.9,228.03 453.2,262.89 66.4,34.85 36.3,90.62 36.3,90.62 l -54.3,117.93 m -5439.36,-226.66 -226.66,308.18 m 99.72,0 271.98,-335.39 m 2175.78,362.6 c 211.19,-177 426.1,-634.57 426.1,-634.57" /></g><path
         id="path174"
         style="fill:none;stroke:#000000;stroke-width:72.32710266;stroke-linecap:round;stroke-linejoin:round;stroke-miterlimit:10;stroke-dasharray:none;stroke-opacity:1"
         d="m 2226.29,7994.53 c 0,0 703.63,-224.41 2578.16,-573.01 1874.5,-348.43 4781.45,-638.98 4781.45,-638.98" /><path
         id="path176"
         style="fill:none;stroke:#000000;stroke-width:72.32710266;stroke-linecap:round;stroke-linejoin:round;stroke-miterlimit:10;stroke-dasharray:none;stroke-opacity:1"
         d="m 14147.3,3191.02 c 0,0 331.2,172.1 396.5,220.27 65.3,47.93 135,164.49 -44,154.14 -179.2,-10.51 -592.1,-82.03 -374.7,-198.36 l -88,-44.02" /><g
         transform="scale(1.17344)"
         id="g178"><path
           id="path180"
           style="fill:none;stroke:#000000;stroke-width:61.63679886;stroke-linecap:round;stroke-linejoin:round;stroke-miterlimit:10;stroke-dasharray:none;stroke-opacity:1"
           d="m 11342.7,2475.09 c 0,321.58 150.9,544.71 300.4,544.71 149.5,0 469.5,-289.18 469.5,-544.71 m 0,0 c 0,-255.52 -320,-544.5 -469.5,-544.5 -149.5,0 -300.4,223.1 -300.4,544.5 m 638.3,-356.62 c 0,0 323.3,-48.6 394.3,-56.52 71.2,-7.76 124,-103.73 150.2,-169.04 26.3,-65.18 180.9,-682.43 225.4,-882.29 44.6,-200.232 -9.4,-407.692 -112.6,-375.631 -103.1,31.684 -530.7,329.287 -694.8,544.501 -164.1,215.02 -498,761.32 -676,957.66 0,0 15.8,58.65 112.6,56.19 m 244.1,-507.02 c 0,0 -1185.3,19.37 -1370.8,19.04 -185.2,-0.53 -520.89,-62.02 -713.54,-75.2 -192.48,-13.22 -1822.86,-42.28 -2441.18,-37.72 -617.93,4.96 -1232.21,18.51 -1746.26,56.56 -514.05,37.84 -993.94,104.43 -1258.09,187.71 -264.34,83.3 -1183.08,394.31 -1183.08,394.31 l -93.85,112.71 c 0,0 -443.44,288.46 -638.58,469.48 -194.94,180.86 -949.03,1095.9 -1107.85,1314.44 -158.858,218.38 -316.308,494.88 -319.104,657.06 -2.999,162.39 74.993,450.83 74.993,450.83 M 16300,1649 12582.1,1667.64 M 1240.01,4090.17 c 0,0 -345.341,867.48 -413.151,1182.89 -67.776,315.58 -187.712,1180.79 -187.712,2610.22 M 789.379,5517.13 c 0,0 333.351,-492.37 488.151,-694.74 154.96,-202.32 805.16,-1004.48 1070.37,-1276.92 265.21,-272.44 588.18,-574.64 751.09,-694.74 163.05,-120.28 550.67,-345.51 995.34,-450.66 444.68,-105.13 829.26,-203.94 1014.02,-338.12 0,0 -573.41,-68.68 -1258.09,131.39 -684.88,200.4 -1039.05,374.03 -1539.88,901.46 -500.83,527.43 -691.38,804.46 -788.78,1070.37 -97.04,265.91 -150.19,544.5 -150.19,544.5 m 244.23,-300.43 c 0,0 -125.73,600.37 -150.2,995.38 -24.67,394.8 -37.68,1774.43 -37.68,2478.66 M 3080.32,2869.4 c 0,0 1340.88,-149.53 2103.06,-206.59 762.18,-56.86 1366.21,-92.08 1821.44,-112.51 455.42,-20.61 1800.49,-73.8 2234.61,-94.04 434.09,-19.91 2103.27,-93.88 2103.27,-93.88 m -2197.14,93.88 c 0,0 21.3,85.58 131.55,131.55 109.89,45.94 209.92,156.56 206.39,356.79 m 94.04,-375.63 c 0,0 -1623.86,275.23 -2647.73,506.99 -1024.06,231.92 -3060.18,826.47 -3680.62,1051.69 -620.23,225.07 -1933.98,901.33 -1933.98,901.33 M 11455.3,1874.23 c 0,0 -1130.2,27.46 -1446,37.69 -315.71,9.85 -2123.07,68.14 -2704.05,93.87 -580.8,25.33 -2049.67,151.6 -2535.02,225.23 m 6290.67,450.64 -225.3,-300.44 c 0,0 -311.5,-352.73 -319.2,-431.79 -7.8,-79.26 -75.1,-244.07 -75.1,-244.07 m -638.52,732.22 1577.32,300.43" /></g></g></g></svg>